<svg width="88" height="88" viewBox="0 0 88 88" fill="none" xmlns="http://www.w3.org/2000/svg">
<path d="M44.0002 84.8574C66.565 84.8574 84.8574 66.565 84.8574 44.0002C84.8574 21.4354 66.565 3.14307 44.0002 3.14307C21.4354 3.14307 3.14307 21.4354 3.14307 44.0002C3.14307 66.565 21.4354 84.8574 44.0002 84.8574Z" stroke="#FFF3B5" stroke-width="5" stroke-linecap="round" stroke-linejoin="round"/>
<path d="M36.7222 13H42V24.4484H32.5046L25.0915 37H19L29.4514 19.2863H36.7222V13Z" fill="url(#paint0_linear_140_759)"/>
<path d="M69 37H62.7999L55.28 24.4484H46V13H51.3646V19.2863H58.3683L69 37Z" fill="url(#paint1_linear_140_759)"/>
<path d="M32.4533 44.4828L34 47H16.5318L15.9979 46.1291L15 44.5031L15.9979 42.8772L16.5318 42H33.9784L32.4533 44.4828Z" fill="url(#paint2_linear_140_759)"/>
<path d="M73 44.5031L71.9981 46.1369L71.4637 47H54L55.5513 44.4828L54.0217 42H71.4637L71.9981 42.8694L73 44.5031Z" fill="url(#paint3_linear_140_759)"/>
<path d="M58 51L53.0011 60H34.9921L30 51H36.275L36.7061 51.7763L38.1288 54.3444H49.8644L49.8798 54.3125L51.679 51.0886L51.725 51H58Z" fill="#FFF3B5"/>
<path d="M58 37H51.725L51.679 36.9229L49.8644 34.0232H38.1288L36.7061 36.3042L36.275 37H30L34.9921 29H53.0011L58 37Z" fill="url(#paint4_linear_140_759)"/>
<path d="M42 63.9965V75H36.7985V69.2925H29.6328L18.1704 49.0596L17 47H23.0035L24.1738 49.0596L32.6419 63.9965H42Z" fill="url(#paint5_linear_140_759)"/>
<path d="M71 47L69.8188 49.0596L58.1708 69.2925H51.2789V75H46V63.9965H55.1318L63.726 49.0596H63.7194L64.9055 47H71Z" fill="url(#paint6_linear_140_759)"/>
<path d="M51.9186 37.1755H52L50.0253 34H50L51.9259 37.0932L51.9186 37.1755ZM50.0253 54L51.9186 50.9454L50.009 54H50.0253Z" fill="#01402E"/>
<path d="M44.5 36C43.0166 36 41.5666 36.4399 40.3332 37.264C39.0999 38.0881 38.1386 39.2594 37.5709 40.6299C37.0033 42.0003 36.8547 43.5083 37.1441 44.9632C37.4335 46.418 38.1478 47.7544 39.1967 48.8033C40.2456 49.8522 41.582 50.5665 43.0368 50.8559C44.4917 51.1453 45.9997 50.9967 47.3701 50.4291C48.7406 49.8614 49.9119 48.9001 50.736 47.6668C51.5601 46.4334 52 44.9834 52 43.5C52 41.5109 51.2098 39.6032 49.8033 38.1967C48.3968 36.7902 46.4891 36 44.5 36ZM49.6054 48.6054C48.3392 49.8678 46.6484 50.6136 44.8623 50.6975C43.0763 50.7813 41.323 50.1972 39.9442 49.0589C38.5653 47.9206 37.6596 46.3097 37.4036 44.5402C37.1476 42.7706 37.5596 40.9691 38.5593 39.4867C39.5591 38.0043 41.0749 36.9472 42.8115 36.5214C44.548 36.0956 46.3809 36.3317 47.953 37.1835C49.525 38.0353 50.7236 39.4419 51.3152 41.1292C51.9068 42.8165 51.8489 44.6636 51.153 46.3106C50.7902 47.1683 50.2647 47.9476 49.6054 48.6054Z" fill="url(#paint7_linear_140_759)"/>
<path d="M44 37C42.6155 37 41.2622 37.4105 40.111 38.1797C38.9599 38.9489 38.0627 40.0421 37.5328 41.3212C37.003 42.6003 36.8644 44.0078 37.1345 45.3656C37.4046 46.7235 38.0713 47.9708 39.0503 48.9497C40.0292 49.9287 41.2765 50.5954 42.6344 50.8655C43.9922 51.1356 45.3997 50.997 46.6788 50.4672C47.9579 49.9373 49.0511 49.0401 49.8203 47.889C50.5895 46.7378 51 45.3845 51 44C51.0002 43.0807 50.8193 42.1703 50.4676 41.321C50.1159 40.4716 49.6003 39.6998 48.9502 39.0498C48.3002 38.3997 47.5284 37.8841 46.6791 37.5324C45.8297 37.1807 44.9193 36.9998 44 37ZM46.5176 42.5524L46.6724 42.7752H47.6199L47.9601 42.435H48.8413L49.6561 41.6202H50.3094C50.4024 41.8652 50.4803 42.1157 50.5424 42.3704H49.9708L49.2904 43.0508H48.4399L47.9091 43.5815H46.1366L45.1925 44.5018V44.8846L44.9815 44.9254V44.347L45.8542 43.4744V42.947L46.5176 42.5524ZM48.3106 40.6591C48.3453 40.6591 48.3786 40.6453 48.4032 40.6207C48.4278 40.5961 48.4416 40.5628 48.4416 40.5281V38.9324C48.5521 39.0294 48.6593 39.1298 48.7648 39.2352L48.877 39.3509V40.7611L48.1081 41.53H47.2117C47.1933 41.5279 47.1747 41.5297 47.1572 41.5353C47.1396 41.5409 47.1233 41.5501 47.1096 41.5624C47.0958 41.5747 47.0848 41.5897 47.0772 41.6066C47.0697 41.6234 47.0658 41.6417 47.0658 41.6601C47.0658 41.6786 47.0697 41.6969 47.0772 41.7137C47.0848 41.7305 47.0958 41.7456 47.1096 41.7579C47.1233 41.7702 47.1396 41.7794 47.1572 41.785C47.1747 41.7906 47.1933 41.7924 47.2117 41.7903H48.2153L49.1373 40.8683V39.6486C49.5775 40.1632 49.9366 40.742 50.2022 41.365H49.5439L48.729 42.1798H47.8445L47.5043 42.52H46.8017L46.6792 42.3499V41.3412H47.4991V39.1587L46.8902 38.548V37.9135C47.3464 38.1317 47.7766 38.4005 48.1728 38.7147V40.5281C48.1728 40.5459 48.1764 40.5635 48.1834 40.5798C48.1904 40.5962 48.2006 40.6109 48.2135 40.6232C48.2264 40.6354 48.2417 40.6449 48.2584 40.6511C48.275 40.6573 48.2928 40.66 48.3106 40.6591ZM42.9674 41.2L42.1883 40.4192V38.6637L42.4911 38.4119L42.7344 38.6569V39.4479L43.869 40.5825V43.9013L43.8877 43.8843L43.9813 43.7908L43.9983 43.7738L44.097 43.8707L44.1293 43.9047V40.5825L45.2639 39.4479V38.6569L45.5089 38.4119L45.8117 38.6637V40.4192L45.0309 41.2V43.1818L44.5307 43.6921L44.216 44.0068L44.347 44.1395L44.4457 44.2364L44.347 44.3351L44.0987 44.5818L44.0068 44.6736L43.9081 44.5818L43.6564 44.3317L43.5594 44.233L43.6564 44.1361L43.7891 44.0034L43.4744 43.6904L42.9742 43.1801L42.9674 41.2ZM43.869 37.2688V39.0804L43.5373 39.4121L44 39.8748L44.4627 39.4121L44.1225 39.0804V37.2671C44.5392 37.2743 44.9544 37.3204 45.3626 37.4049V38.184L44.9968 38.5514V39.3441L43.9915 40.3477L42.9879 39.3441V38.5514L42.6204 38.184V37.4049C43.0292 37.3204 43.4449 37.2743 43.8622 37.2671L43.869 37.2688ZM42.3772 37.461V38.1738L41.9349 38.5412V40.1589L41.86 40.0841H41.3259C41.3075 40.082 41.289 40.0838 41.2714 40.0894C41.2538 40.0949 41.2376 40.1042 41.2238 40.1165C41.21 40.1288 41.199 40.1438 41.1914 40.1607C41.1839 40.1775 41.18 40.1958 41.18 40.2142C41.18 40.2327 41.1839 40.2509 41.1914 40.2678C41.199 40.2846 41.21 40.2997 41.2238 40.312C41.2376 40.3242 41.2538 40.3335 41.2714 40.3391C41.289 40.3447 41.3075 40.3464 41.3259 40.3443H41.7529L41.9502 40.5417C41.9619 40.5667 41.9817 40.587 42.0063 40.5995L42.7157 41.3072V43.2906L43.4761 44.0527V44.8182L43.7908 45.1312V46.4189H44.2262V45.1312L44.5409 44.8182V44.0527L45.303 43.2906V41.3072L46.0107 40.5995C46.0358 40.5871 46.0561 40.5668 46.0685 40.5417L46.2659 40.3443H46.6928C46.7248 40.3407 46.7543 40.3254 46.7757 40.3014C46.7971 40.2774 46.8089 40.2464 46.8089 40.2142C46.8089 40.1821 46.7971 40.151 46.7757 40.127C46.7543 40.103 46.7248 40.0877 46.6928 40.0841H46.157L46.0821 40.1589V38.5412L45.6416 38.1738V37.461C45.9797 37.5451 46.3107 37.6554 46.6316 37.791H46.6435V38.6518L47.2542 39.2625V41.0622H46.4326V42.2989L45.6007 42.7888V43.357L44.7196 44.2416V44.9645C44.7187 44.9696 44.7187 44.9748 44.7196 44.9798L44.6498 44.9934L44.3725 45.2622V47.5825L44.8829 48.103L45.3932 48.6049H46.0413L46.4241 48.9876V49.2547H45.8474L44.2092 47.6165V46.5874H43.7891V47.6165L42.1492 49.2547H41.5742V48.9876L41.957 48.6049H42.6034L43.1137 48.103L43.6326 47.5825V45.2622L43.3519 44.9815L43.2838 44.9679V44.2416L42.4112 43.3689V42.8007L41.5793 42.3108V41.0741H40.7594V39.2676L41.3684 38.6569V37.7961H41.3803C41.7033 37.6585 42.0366 37.5465 42.3772 37.461ZM38.8627 39.6486V40.8768L39.7847 41.7988H40.79C40.8084 41.8009 40.8269 41.7991 40.8445 41.7935C40.8621 41.7879 40.8784 41.7787 40.8921 41.7664C40.9059 41.7541 40.9169 41.739 40.9245 41.7222C40.932 41.7054 40.9359 41.6871 40.9359 41.6687C40.9359 41.6502 40.932 41.6319 40.9245 41.6151C40.9169 41.5983 40.9059 41.5832 40.8921 41.5709C40.8784 41.5586 40.8621 41.5494 40.8445 41.5438C40.8269 41.5382 40.8084 41.5364 40.79 41.5385H39.8936L39.1247 40.7696V39.3594C39.1248 39.3566 39.1248 39.3537 39.1247 39.3509L39.2369 39.2352C39.3424 39.1298 39.4513 39.0294 39.5619 38.9324V40.5281C39.5598 40.5464 39.5615 40.565 39.5671 40.5826C39.5727 40.6002 39.5819 40.6164 39.5942 40.6302C39.6065 40.6439 39.6216 40.655 39.6384 40.6625C39.6553 40.6701 39.6735 40.674 39.692 40.674C39.7104 40.674 39.7287 40.6701 39.7455 40.6625C39.7624 40.655 39.7774 40.6439 39.7897 40.6302C39.802 40.6164 39.8113 40.6002 39.8168 40.5826C39.8224 40.565 39.8242 40.5464 39.8221 40.5281V38.7147C40.2189 38.4004 40.6497 38.1317 41.1064 37.9135V38.548L40.4957 39.1587V41.3293H41.3174V42.338L41.1932 42.5081H40.4889L40.1487 42.1679H39.2642L38.4493 41.3531H37.7927C38.0615 40.7343 38.4222 40.1596 38.8627 39.6486ZM37.6923 41.6338H38.3473L39.1621 42.4486H40.045L40.3852 42.7888H41.3327L41.4892 42.566L42.1526 42.9555V43.4829L43.0253 44.3555V44.922L42.8143 44.8812V44.4967L41.8668 43.5781H40.0977L39.5619 43.0508H38.7113L38.0309 42.3704H37.4593C37.5232 42.1179 37.601 41.8692 37.6923 41.6253V41.6338ZM37.7842 46.6231C37.2532 45.36 37.118 43.9654 37.3964 42.6238H37.9186L38.599 43.3042H39.1094L38.1618 44.6651H37.8557C37.8209 44.6651 37.7876 44.6789 37.763 44.7035C37.7385 44.7281 37.7247 44.7614 37.7247 44.7961C37.7247 44.8308 37.7385 44.8642 37.763 44.8887C37.7876 44.9133 37.8209 44.9271 37.8557 44.9271H38.2979L39.4241 43.3145H39.4411L39.9718 43.8452H41.3038L41.3344 43.869C41.4853 43.9815 41.6193 44.1149 41.7324 44.2654C41.8114 44.3675 41.8608 44.4893 41.8753 44.6175H40.9738L40.6182 44.2637H39.8595L38.8797 45.2435H38.4748C38.4565 45.2414 38.4379 45.2432 38.4203 45.2488C38.4027 45.2544 38.3865 45.2636 38.3728 45.2759C38.359 45.2882 38.348 45.3032 38.3404 45.3201C38.3329 45.3369 38.329 45.3552 38.329 45.3736C38.329 45.3921 38.3329 45.4103 38.3404 45.4272C38.348 45.444 38.359 45.4591 38.3728 45.4714C38.3865 45.4837 38.4027 45.4929 38.4203 45.4985C38.4379 45.5041 38.4565 45.5059 38.4748 45.5038H38.9852L39.965 44.5239H40.5094L40.7322 44.7485L38.6603 46.8204H38.3115C38.2768 46.8204 38.2435 46.8342 38.2189 46.8588C38.1944 46.8833 38.1806 46.9167 38.1806 46.9514C38.1806 46.9861 38.1944 47.0195 38.2189 47.044C38.2435 47.0686 38.2768 47.0824 38.3115 47.0824H38.7691L40.9806 44.8795H41.8107H42.6255C42.6255 44.8795 42.9879 45.087 42.9879 45.8457C42.9879 46.9667 42.2394 47.8207 41.9536 48.1081H42.7361L42.4962 48.348H41.8498L41.314 48.8855V49.2615H41.0877L39.8204 49.2717H39.8051C39.6059 49.1122 39.4157 48.9418 39.2352 48.7614C38.6187 48.1484 38.1261 47.4224 37.7842 46.6231ZM40.1419 49.5302C40.9295 49.5302 41.9298 49.5183 42.2615 49.5302V49.9963L41.8668 50.3927C41.7013 50.3383 41.538 50.277 41.3769 50.209C40.9455 50.025 40.534 49.7976 40.1487 49.5302H40.1419ZM44.1242 50.7363V49.2053L44.4644 48.8736L44.0017 48.4109L43.539 48.8736L43.8707 49.2053V50.7363C43.2882 50.7256 42.7095 50.6392 42.1492 50.4795L42.5303 50.0984V49.5302L43.0287 49.0318L43.243 49.2462V50.1784C43.2409 50.1967 43.2427 50.2153 43.2483 50.2329C43.2539 50.2505 43.2631 50.2667 43.2754 50.2805C43.2877 50.2942 43.3027 50.3053 43.3196 50.3128C43.3364 50.3204 43.3547 50.3243 43.3731 50.3243C43.3916 50.3243 43.4099 50.3204 43.4267 50.3128C43.4435 50.3053 43.4586 50.2942 43.4709 50.2805C43.4832 50.2667 43.4924 50.2505 43.498 50.2329C43.5036 50.2153 43.5054 50.1967 43.5033 50.1784V49.1373L43.2141 48.8481L44.0017 48.0588L44.791 48.8481L44.5001 49.1373V50.1784C44.5001 50.2131 44.5139 50.2464 44.5385 50.271C44.563 50.2955 44.5964 50.3094 44.6311 50.3094C44.6658 50.3094 44.6992 50.2955 44.7237 50.271C44.7483 50.2464 44.7621 50.2131 44.7621 50.1784V49.2462L44.9747 49.0318L45.4731 49.5302V50.0984L45.8542 50.4795C45.2934 50.6395 44.7141 50.7258 44.131 50.7363H44.1242ZM46.6163 50.209C46.4462 50.277 46.2931 50.3383 46.1281 50.3927L45.7266 49.9912V49.5251C46.0583 49.5251 47.0586 49.5251 47.8445 49.5251C47.4639 49.7938 47.057 50.023 46.6299 50.209H46.6163ZM50.2022 46.6231C49.8634 47.4234 49.373 48.1507 48.758 48.7648C48.5783 48.946 48.388 49.1165 48.1881 49.2751H48.1728L46.9055 49.2649H46.6792V48.8855L46.1434 48.348H45.497L45.269 48.1081H46.0532C45.7657 47.8207 45.0173 46.9667 45.0173 45.8457C45.0173 45.087 45.3813 44.8795 45.3813 44.8795H46.1944H47.0262L49.2377 47.0824H49.6953C49.73 47.0824 49.7633 47.0686 49.7879 47.044C49.8124 47.0195 49.8262 46.9861 49.8262 46.9514C49.8262 46.9167 49.8124 46.8833 49.7879 46.8588C49.7633 46.8342 49.73 46.8204 49.6953 46.8204H49.3448L47.2525 44.7519L47.477 44.5273H48.0197L48.9995 45.5072H49.5098C49.5282 45.5093 49.5468 45.5075 49.5643 45.5019C49.5819 45.4963 49.5982 45.4871 49.6119 45.4748C49.6257 45.4625 49.6367 45.4474 49.6443 45.4306C49.6518 45.4137 49.6557 45.3955 49.6557 45.377C49.6557 45.3586 49.6518 45.3403 49.6443 45.3235C49.6367 45.3066 49.6257 45.2916 49.6119 45.2793C49.5982 45.267 49.5819 45.2578 49.5643 45.2522C49.5468 45.2466 49.5282 45.2448 49.5098 45.2469H49.1067L48.1269 44.2671H47.3665L47.0126 44.6209H46.1196C46.1357 44.4928 46.1856 44.3712 46.2642 44.2688C46.3766 44.1183 46.5101 43.9848 46.6605 43.8724L46.6928 43.8486H48.0248L48.5555 43.3179H48.5708L49.6919 44.922H50.1341C50.1689 44.922 50.2022 44.9082 50.2268 44.8836C50.2513 44.8591 50.2651 44.8257 50.2651 44.791C50.2651 44.7563 50.2513 44.7229 50.2268 44.6984C50.2022 44.6738 50.1689 44.66 50.1341 44.66H49.8279L48.8804 43.2991H49.3908L50.0712 42.6187H50.5951C50.6879 43.0716 50.7346 43.5326 50.7346 43.9949C50.7356 44.8978 50.5545 45.7917 50.2022 46.6231Z" fill="url(#paint8_linear_140_759)"/>
<path d="M44.0808 43.862L43.8345 44.1084L44.0808 44.3548L44.3272 44.1084L44.0808 43.862Z" fill="url(#paint9_linear_140_759)"/>
<defs>
<linearGradient id="paint0_linear_140_759" x1="34.6382" y1="23.481" x2="22.3634" y2="42.511" gradientUnits="userSpaceOnUse">
<stop stop-color="#FFF3B5"/>
<stop offset="1" stop-color="#AB8649"/>
</linearGradient>
<linearGradient id="paint1_linear_140_759" x1="54.2713" y1="24.3869" x2="67.9378" y2="42.2074" gradientUnits="userSpaceOnUse">
<stop stop-color="#FFF3B5"/>
<stop offset="1" stop-color="#AB8649"/>
</linearGradient>
<linearGradient id="paint2_linear_140_759" x1="-3.47943" y1="44.5" x2="48.3498" y2="44.5" gradientUnits="userSpaceOnUse">
<stop stop-color="#FFF3B5"/>
<stop offset="0.2" stop-color="#FCEFB1"/>
<stop offset="0.39" stop-color="#F4E4A6"/>
<stop offset="0.58" stop-color="#E5D194"/>
<stop offset="0.76" stop-color="#D1B77A"/>
<stop offset="0.93" stop-color="#B79658"/>
<stop offset="1" stop-color="#AB8649"/>
</linearGradient>
<linearGradient id="paint3_linear_140_759" x1="35.5177" y1="44.5" x2="87.351" y2="44.5" gradientUnits="userSpaceOnUse">
<stop stop-color="#FFF3B5"/>
<stop offset="0.2" stop-color="#FCEFB1"/>
<stop offset="0.39" stop-color="#F4E4A6"/>
<stop offset="0.58" stop-color="#E5D194"/>
<stop offset="0.76" stop-color="#D1B77A"/>
<stop offset="0.93" stop-color="#B79658"/>
<stop offset="1" stop-color="#AB8649"/>
</linearGradient>
<linearGradient id="paint4_linear_140_759" x1="47.9562" y1="31.3093" x2="32.1447" y2="52.7492" gradientUnits="userSpaceOnUse">
<stop stop-color="#FFF3B5"/>
<stop offset="1" stop-color="#AB8649"/>
</linearGradient>
<linearGradient id="paint5_linear_140_759" x1="35.7977" y1="67.4635" x2="23.6544" y2="45.2087" gradientUnits="userSpaceOnUse">
<stop stop-color="#FFF3B5"/>
<stop offset="1" stop-color="#AB8649"/>
</linearGradient>
<linearGradient id="paint6_linear_140_759" x1="51.9473" y1="67.4702" x2="64.0388" y2="45.5176" gradientUnits="userSpaceOnUse">
<stop stop-color="#FFF3B5"/>
<stop offset="1" stop-color="#AB8649"/>
</linearGradient>
<linearGradient id="paint7_linear_140_759" x1="37" y1="43.5" x2="52" y2="43.5" gradientUnits="userSpaceOnUse">
<stop stop-color="#FFF3B5"/>
<stop offset="1" stop-color="#AB8649"/>
</linearGradient>
<linearGradient id="paint8_linear_140_759" x1="37.0017" y1="44" x2="51" y2="44" gradientUnits="userSpaceOnUse">
<stop stop-color="#FFF3B5"/>
<stop offset="1" stop-color="#AB8649"/>
</linearGradient>
<linearGradient id="paint9_linear_140_759" x1="43.8347" y1="44.1077" x2="44.3265" y2="44.1077" gradientUnits="userSpaceOnUse">
<stop stop-color="#FFF3B5"/>
<stop offset="1" stop-color="#AB8649"/>
</linearGradient>
</defs>
</svg>
