<svg width="88" height="88" viewBox="0 0 88 88" fill="none" xmlns="http://www.w3.org/2000/svg">
<path d="M44.0002 84.8574C66.565 84.8574 84.8574 66.565 84.8574 44.0002C84.8574 21.4354 66.565 3.14307 44.0002 3.14307C21.4354 3.14307 3.14307 21.4354 3.14307 44.0002C3.14307 66.565 21.4354 84.8574 44.0002 84.8574Z" stroke="#479CCD" stroke-width="5" stroke-linecap="round" stroke-linejoin="round"/>
<path d="M43.5634 28.6166C44.3387 28.618 45.0818 28.9267 45.6299 29.475C46.1781 30.0234 46.4867 30.7667 46.4881 31.5421V40.351V55.1396C46.4881 55.9155 46.18 56.6597 45.6315 57.2083C45.083 57.757 44.3391 58.0652 43.5634 58.0652H43.4938C42.7181 58.0652 41.9742 57.757 41.4257 57.2083C40.8772 56.6597 40.5691 55.9155 40.5691 55.1396V40.351V31.5421C40.5705 30.7667 40.8791 30.0234 41.4273 29.475C41.9755 28.9267 42.7185 28.618 43.4938 28.6166H43.5634ZM52.8732 18.511C52.793 18.4713 52.7085 18.4407 52.6214 18.4199C49.8441 17.4766 46.9304 16.9969 43.9973 17C36.8412 17.0071 29.9801 19.8531 24.919 24.9137C19.8579 29.9743 17.01 36.8364 17.0001 43.9946C16.9879 49.5243 18.691 54.9216 21.8746 59.4422C21.9513 59.5681 22.0372 59.6881 22.1317 59.8012V45.1198C22.1103 44.7626 22.0995 44.3875 22.0995 43.9946C22.0995 43.6195 22.0995 43.2391 22.1317 42.8747C22.1693 42.1155 22.248 41.3589 22.3674 40.6082C22.3742 40.521 22.3903 40.4348 22.4156 40.351C22.9678 37.0863 24.2533 33.9895 26.1753 31.2937C28.0973 28.5979 30.6057 26.3734 33.5115 24.7877C36.4174 23.202 39.6451 22.2965 42.9515 22.1392C46.2579 21.982 49.5569 22.5772 52.6 23.8799C52.6858 23.9132 52.7698 23.9507 52.8518 23.9925V43.2551C52.8496 43.6441 52.9249 44.0296 53.0732 44.3892C53.2215 44.7488 53.4398 45.0752 53.7156 45.3495C53.9913 45.6238 54.3188 45.8405 54.6791 45.9868C55.0393 46.1332 55.4251 46.2064 55.814 46.2022C56.1985 46.2 56.5788 46.1221 56.9332 45.9728C57.2876 45.8235 57.6091 45.6058 57.8793 45.332C58.1494 45.0583 58.363 44.734 58.5077 44.3776C58.6524 44.0212 58.7254 43.6398 58.7226 43.2551V23.028C58.7258 22.517 58.5936 22.0144 58.3396 21.5711C58.0855 21.1278 57.7187 20.7597 57.2763 20.5043C55.874 19.704 54.3998 19.0366 52.8732 18.511ZM65.1934 27.3306V38.5828C66.1077 42.1436 66.1077 45.8777 65.1934 49.4385C65.0934 49.8457 64.9809 50.2476 64.8559 50.6441C63.7387 54.1606 61.744 57.3343 59.0601 59.8655C58.9476 59.9781 58.8351 60.0906 58.7226 60.1924C56.9886 61.7693 55.0139 63.059 52.8732 64.0128C52.7923 64.0567 52.7081 64.0943 52.6214 64.1253C50.7444 64.9404 48.76 65.4818 46.7292 65.7328L46.4774 65.7649C45.6576 65.8593 44.8332 65.9076 44.008 65.9096C42.8614 65.9095 41.7167 65.8163 40.5852 65.631L40.3334 65.5934C38.1969 65.2372 36.127 64.5578 34.1947 63.5788V43.5338C34.1947 42.7579 33.8866 42.0137 33.3381 41.4651C32.7896 40.9164 32.0457 40.6082 31.27 40.6082H31.2165C30.4408 40.6082 29.6969 40.9164 29.1484 41.4651C28.5999 42.0137 28.2918 42.7579 28.2918 43.5338V64.3718C28.2897 64.8621 28.4114 65.3451 28.6454 65.7759C28.8795 66.2067 29.2185 66.5715 29.6309 66.8365C31.0734 67.7531 32.6019 68.5266 34.1947 69.1459L34.4465 69.2477C36.3455 69.9732 38.3232 70.4732 40.3388 70.7373C40.4194 70.7662 40.505 70.7789 40.5905 70.7748C41.7249 70.9285 42.8686 71.0037 44.0134 70.9999C44.849 70.9999 45.6632 70.9624 46.4828 70.882C46.5666 70.8873 46.6507 70.8873 46.7345 70.882C48.7411 70.6847 50.7182 70.2568 52.6268 69.6067C52.714 69.584 52.7985 69.5517 52.8785 69.5103C54.942 68.8022 56.9075 67.8354 58.728 66.6329L59.0654 66.4186C61.247 64.9466 63.203 63.1652 64.872 61.1301C64.9845 60.9854 65.1077 60.8461 65.2094 60.6907C68.9598 55.9444 71 50.0713 71 44.0214C71 37.9714 68.9598 32.0984 65.2094 27.352L65.1934 27.3306Z" fill="url(#paint0_linear_140_838)"/>
<defs>
<linearGradient id="paint0_linear_140_838" x1="26.7491" y1="62.6518" x2="63.2928" y2="23.1567" gradientUnits="userSpaceOnUse">
<stop stop-color="#3F3192"/>
<stop offset="1" stop-color="#4ABCDF"/>
</linearGradient>
</defs>
</svg>
