<svg width="88" height="88" viewBox="0 0 88 88" fill="none" xmlns="http://www.w3.org/2000/svg">
<g clip-path="url(#clip0_140_737)">
<path d="M44.0002 84.8574C66.565 84.8574 84.8574 66.565 84.8574 44.0002C84.8574 21.4354 66.565 3.14307 44.0002 3.14307C21.4354 3.14307 3.14307 21.4354 3.14307 44.0002C3.14307 66.565 21.4354 84.8574 44.0002 84.8574Z" stroke="#00DBF9" stroke-width="5" stroke-linecap="round" stroke-linejoin="round"/>
<path d="M54.48 18.5798L45.3913 13.3919C44.9418 13.1352 44.432 13 43.913 13C43.3941 13 42.8842 13.1352 42.4348 13.3919L33.353 18.5798C32.9037 18.8365 32.5305 19.2057 32.271 19.6503C32.0115 20.0949 31.8749 20.5993 31.8748 21.1127V31.4885C31.8751 31.6657 31.8914 31.8425 31.9235 32.0168L37.7878 28.6666V22.8024L43.913 19.3025L50.0382 22.8024V28.6666L55.9026 32.0168C55.9363 31.8427 55.9527 31.6658 55.9513 31.4885V21.1075C55.951 20.5957 55.815 20.0928 55.5568 19.6493C55.2986 19.2057 54.9273 18.837 54.48 18.5798ZM33.1722 57.7585L28.04 60.6837L21.913 57.1976V50.1995L26.967 47.3121V40.6014C26.8269 40.6548 26.6914 40.7192 26.5617 40.7941L17.4783 45.9769C17.0289 46.2336 16.6557 46.6028 16.3962 47.0474C16.1367 47.492 16.0001 47.9963 16 48.5097V58.8873C16.0001 59.4007 16.1367 59.9051 16.3962 60.3497C16.6557 60.7943 17.0289 61.1635 17.4783 61.4202L26.5617 66.6081C27.0112 66.8648 27.521 67 28.04 67C28.559 67 29.0688 66.8648 29.5183 66.6081L38.6087 61.4202C38.763 61.3318 38.9085 61.2292 39.0435 61.1139L33.1722 57.7585ZM70.52 45.8857L61.4382 40.696C61.2596 40.5937 61.07 40.5112 60.873 40.45V47.1297L66.0904 50.1066V57.1047L59.9652 60.6046L54.833 57.6794L48.9652 61.0279C49.0998 61.1436 49.2454 61.2461 49.4 61.3341L58.4817 66.5221C58.9312 66.7788 59.441 66.914 59.96 66.914C60.479 66.914 60.9888 66.7788 61.4382 66.5221L70.52 61.3341C70.9712 61.0768 71.3458 60.706 71.6056 60.2595C71.8655 59.8129 72.0016 59.3063 72 58.7909V48.4151C71.9991 47.9021 71.8619 47.3984 71.6022 46.9544C71.3424 46.5104 70.9692 46.1419 70.52 45.8857ZM52.2591 35.2913L46.3461 31.9136L43.9217 30.537L41.4991 31.9136L35.5861 35.2913L31.6643 37.5282V51.533L34.1687 52.9629L40.0817 56.3407L43.9217 58.5346L47.9217 56.2495L53.8348 52.8717L56.1739 51.5382V37.5334L52.2591 35.2913ZM50.1061 50.7604H46.1269V48.7093C46.1107 48.1298 45.8665 47.5793 45.4464 47.1751C45.0263 46.7708 44.4634 46.5446 43.8774 46.5446C43.2914 46.5446 42.7285 46.7708 42.3084 47.1751C41.8883 47.5793 41.6441 48.1298 41.6278 48.7093V50.7621H37.6522V41.491L41.5548 38.7035L43.8782 37.043L46.24 38.731L50.1043 41.4841L50.1061 50.7604Z" fill="url(#paint0_linear_140_737)"/>
</g>
<defs>
<linearGradient id="paint0_linear_140_737" x1="44" y1="12.5677" x2="44" y2="67.9726" gradientUnits="userSpaceOnUse">
<stop stop-color="#00FFF1"/>
<stop offset="1" stop-color="#01C1FF"/>
</linearGradient>
<clipPath id="clip0_140_737">
<rect width="88" height="88" fill="white"/>
</clipPath>
</defs>
</svg>
