<svg width="88" height="88" viewBox="0 0 88 88" fill="none" xmlns="http://www.w3.org/2000/svg">
<path d="M43.8569 13.8569C37.9235 13.8569 32.1233 15.6164 27.1898 18.9128C22.2564 22.2093 18.4112 26.8946 16.1406 32.3764C13.8699 37.8582 13.2758 43.8902 14.4334 49.7096C15.5909 55.5291 18.4482 60.8745 22.6437 65.0701C26.8393 69.2657 32.1848 72.1229 38.0042 73.2805C43.8237 74.438 49.8557 73.8439 55.3374 71.5733C60.8192 69.3027 65.5046 65.4575 68.801 60.524C72.0975 55.5906 73.8569 49.7904 73.8569 43.8569C73.8569 35.9004 70.6962 28.2698 65.0701 22.6437C59.4441 17.0176 51.8134 13.8569 43.8569 13.8569ZM43.8569 71.4739C38.3947 71.4745 33.055 69.8552 28.513 66.821C23.971 63.7868 20.4308 59.4738 18.3401 54.4275C16.2494 49.3812 15.7021 43.8283 16.7674 38.4709C17.8326 33.1136 20.4627 28.1924 24.3248 24.3298C28.187 20.4672 33.1079 17.8367 38.4651 16.7708C43.8224 15.705 49.3754 16.2517 54.4219 18.3419C59.4684 20.4321 63.7818 23.9718 66.8165 28.5135C69.8512 33.0551 71.471 38.3947 71.471 43.8569C71.4625 51.1783 68.5505 58.1974 63.3738 63.3746C58.1971 68.5519 51.1783 71.4646 43.8569 71.4739ZM43.8569 18.0821C38.7592 18.0821 33.7759 19.5937 29.5372 22.4259C25.2985 25.2581 21.9949 29.2836 20.0441 33.9933C18.0932 38.7031 17.5828 43.8855 18.5773 48.8853C19.5719 53.8852 22.0267 58.4778 25.6314 62.0825C29.236 65.6872 33.8287 68.142 38.8285 69.1365C43.8283 70.131 49.0108 69.6206 53.7205 67.6698C58.4303 65.7189 62.4558 62.4153 65.2879 58.1767C68.1201 53.938 69.6318 48.9547 69.6318 43.8569C69.624 37.0234 66.906 30.4719 62.074 25.6399C57.2419 20.8079 50.6905 18.0898 43.8569 18.0821ZM26.4885 54.6318L39.9973 31.2107L42.6874 35.8891L31.8686 54.6318H26.4885ZM58.8862 54.6318L50.7575 40.5528L48.0675 45.202L53.5061 54.6172H48.1259L45.3774 49.8803L42.6289 54.6172H37.2488L50.7575 31.1961L64.2663 54.6172L58.8862 54.6318Z" fill="#B31128"/>
<path d="M43.8571 84.7143C66.4219 84.7143 84.7143 66.4219 84.7143 43.8571C84.7143 21.2924 66.4219 3 43.8571 3C21.2924 3 3 21.2924 3 43.8571C3 66.4219 21.2924 84.7143 43.8571 84.7143Z" stroke="#B31128" stroke-width="5" stroke-linecap="round" stroke-linejoin="round"/>
</svg>
