<svg width="88" height="88" viewBox="0 0 88 88" fill="none" xmlns="http://www.w3.org/2000/svg">
<path d="M44.0002 84.8574C66.565 84.8574 84.8574 66.565 84.8574 44.0002C84.8574 21.4354 66.565 3.14307 44.0002 3.14307C21.4354 3.14307 3.14307 21.4354 3.14307 44.0002C3.14307 66.565 21.4354 84.8574 44.0002 84.8574Z" stroke="#D85D36" stroke-width="5" stroke-linecap="round" stroke-linejoin="round"/>
<path d="M58.5118 54.2062L44 62.4145L29.4882 54.2142V28.2042L21 33.001V59.003L44 72L67 59.003V50.747H58.5118V54.2062ZM44 20L38.3669 23.1846V32.7701L44 29.5855L58.5118 37.7978V41.245H67V33.001L44 20Z" fill="#D85D36"/>
<path d="M50 42.2469V48.7531L44.5 52L39 48.7531V42.2469L44.5 39L50 42.2469Z" fill="#D85D36"/>
</svg>
