<svg width="88" height="88" viewBox="0 0 88 88" fill="none" xmlns="http://www.w3.org/2000/svg">
<path d="M52.5 34C53.8807 34 55 33.1046 55 32C55 30.8954 53.8807 30 52.5 30C51.1193 30 50 30.8954 50 32C50 33.1046 51.1193 34 52.5 34Z" fill="#F9D342"/>
<path d="M52.5 43C53.8807 43 55 42.1046 55 41C55 39.8954 53.8807 39 52.5 39C51.1193 39 50 39.8954 50 41C50 42.1046 51.1193 43 52.5 43Z" fill="#F9D342"/>
<path d="M48 39C49.1046 39 50 37.8807 50 36.5C50 35.1193 49.1046 34 48 34C46.8954 34 46 35.1193 46 36.5C46 37.8807 46.8954 39 48 39Z" fill="#F9D342"/>
<path d="M57 39C58.1046 39 59 37.8807 59 36.5C59 35.1193 58.1046 34 57 34C55.8954 34 55 35.1193 55 36.5C55 37.8807 55.8954 39 57 39Z" fill="#F9D342"/>
<path d="M65.139 20.0001H39.9516C38.9912 19.9923 38.0638 20.3532 37.3578 21.0096L18.6901 39.8461C18.4715 40.0639 18.2979 40.3233 18.1795 40.6092C18.061 40.8951 18 41.2019 18 41.5117C18 41.8215 18.061 42.1283 18.1795 42.4142C18.2979 42.7001 18.4715 42.9595 18.6901 43.1773L19.271 43.7477C19.4863 43.9685 19.7431 44.1439 20.0264 44.2636C20.3096 44.3833 20.6137 44.445 20.9209 44.445C21.2281 44.445 21.5322 44.3833 21.8155 44.2636C22.0988 44.1439 22.3555 43.9685 22.5709 43.7477L27.8787 38.4026C28.4524 37.7954 29.2131 37.402 30.037 37.2866C30.8609 37.1711 31.6992 37.3403 32.4155 37.7666C32.9126 38.089 33.3216 38.5319 33.605 39.0548C33.8884 39.5777 34.0373 40.1638 34.0379 40.7597C34.0431 41.2222 33.9573 41.6811 33.7854 42.11C33.6135 42.5388 33.3589 42.9291 33.0364 43.2581L22.4357 53.9129C22.2169 54.1312 22.0432 54.391 21.9247 54.6773C21.8062 54.9636 21.7451 55.2708 21.7451 55.581C21.7451 55.8913 21.8062 56.1985 21.9247 56.4848C22.0432 56.7711 22.2169 57.0309 22.4357 57.2492L23.0916 57.9255C23.5326 58.362 24.126 58.6066 24.7441 58.6066C25.3622 58.6066 25.9555 58.362 26.3965 57.9255L31.3188 52.964C32.776 51.4902 35.2647 51.3893 36.6317 52.964C37.2019 53.5997 37.5131 54.4289 37.503 55.2858V55.3312C37.5033 56.25 37.1433 57.1317 36.5015 57.7842C36.284 58.0031 36.1114 58.2631 35.9936 58.5494C35.8758 58.8356 35.8152 59.1424 35.8152 59.4523C35.8152 59.7622 35.8758 60.069 35.9936 60.3553C36.1114 60.6415 36.284 60.9015 36.5015 61.1204L37.0423 61.6605C37.2584 61.8809 37.5157 62.0558 37.7994 62.1752C38.0831 62.2946 38.3874 62.3561 38.6948 62.3561C39.0022 62.3561 39.3065 62.2946 39.5902 62.1752C39.8738 62.0558 40.1311 61.8809 40.3472 61.6605L45.8103 56.1539C46.4744 55.4893 47.3731 55.1178 48.3089 55.1211C49.2447 55.1244 50.1409 55.5023 50.8002 56.1716C51.4596 56.8409 51.8282 57.7468 51.8249 58.69C51.8216 59.6333 51.4467 60.5366 50.7827 61.2012L41.7693 70.2863C41.5515 70.5041 41.3786 70.7631 41.2605 71.0486C41.1425 71.334 41.0818 71.6402 41.0818 71.9494C41.0818 72.2587 41.1425 72.5648 41.2605 72.8503C41.3786 73.1357 41.5515 73.3948 41.7693 73.6125L42.4504 74.304C42.6669 74.5245 42.9246 74.6996 43.2087 74.819C43.4928 74.9385 43.7975 75 44.1053 75C44.4131 75 44.7179 74.9385 45.0019 74.819C45.286 74.6996 45.5437 74.5245 45.7603 74.304L67.9832 51.9091C68.6469 51.1962 69.0112 50.252 68.9997 49.2744V23.8916C69.0011 23.3802 68.9021 22.8736 68.7085 22.4008C68.515 21.9281 68.2307 21.4986 67.8719 21.1369C67.5131 20.7753 67.087 20.4887 66.618 20.2936C66.149 20.0985 65.6464 19.9988 65.139 20.0001ZM52.5704 48.6536C50.1935 48.6536 47.8699 47.9432 45.8936 46.6121C43.9173 45.2811 42.3769 43.3892 41.4673 41.1758C40.5577 38.9623 40.3197 36.5267 40.7835 34.1769C41.2472 31.8271 42.3918 29.6687 44.0725 27.9746C45.7532 26.2805 47.8946 25.1268 50.2258 24.6594C52.557 24.192 54.9734 24.4318 57.1694 25.3487C59.3654 26.2655 61.2423 27.8182 62.5628 29.8102C63.8834 31.8023 64.5882 34.1443 64.5882 36.5401C64.5882 39.7528 63.322 42.8339 61.0683 45.1057C58.8145 47.3774 55.7577 48.6536 52.5704 48.6536Z" fill="#F9D342"/>
<g clip-path="url(#clip0_139_720)">
<path d="M44 84.8571C66.5647 84.8571 84.8571 66.5647 84.8571 44C84.8571 21.4352 66.5647 3.14282 44 3.14282C21.4352 3.14282 3.14282 21.4352 3.14282 44C3.14282 66.5647 21.4352 84.8571 44 84.8571Z" stroke="#F9D342" stroke-width="5" stroke-linecap="round" stroke-linejoin="round"/>
</g>
<defs>
<clipPath id="clip0_139_720">
<rect width="88" height="88" fill="white"/>
</clipPath>
</defs>
</svg>
