<svg width="88" height="88" viewBox="0 0 88 88" fill="none" xmlns="http://www.w3.org/2000/svg">
<path d="M60.2857 37C60.224 41.4472 58.4284 45.6911 55.2871 48.8139C52.1459 51.9368 47.9116 53.6875 43.5 53.6875C39.0884 53.6875 34.8541 51.9368 31.7129 48.8139C28.5716 45.6911 26.776 41.4472 26.7143 37H18.0016C17.9633 40.4004 18.5946 43.7746 19.8588 46.9273C21.1231 50.0801 22.9952 52.9486 25.3667 55.3668C27.7382 57.785 30.5621 59.7048 33.6747 61.0151C36.7874 62.3253 40.1269 63 43.5 63C46.8731 63 50.2126 62.3253 53.3253 61.0151C56.4379 59.7048 59.2618 57.785 61.6333 55.3668C64.0048 52.9486 65.8769 50.0801 67.1412 46.9273C68.4054 43.7746 69.0367 40.4004 68.9984 37H60.2857Z" fill="#614FA1"/>
<path d="M57 37C57 40.4478 55.6304 43.7544 53.1924 46.1924C50.7544 48.6304 47.4478 50 44 50C40.5522 50 37.2456 48.6304 34.8076 46.1924C32.3696 43.7544 31 40.4478 31 37H57Z" fill="#614FA1"/>
<path d="M44 35C46.7614 35 49 32.7614 49 30C49 27.2386 46.7614 25 44 25C41.2386 25 39 27.2386 39 30C39 32.7614 41.2386 35 44 35Z" fill="#614FA1"/>
<path d="M22.5 35C24.9853 35 27 32.7614 27 30C27 27.2386 24.9853 25 22.5 25C20.0147 25 18 27.2386 18 30C18 32.7614 20.0147 35 22.5 35Z" fill="#614FA1"/>
<path d="M65 35C67.7614 35 70 32.7614 70 30C70 27.2386 67.7614 25 65 25C62.2386 25 60 27.2386 60 30C60 32.7614 62.2386 35 65 35Z" fill="#614FA1"/>
<g clip-path="url(#clip0_140_743)">
<path d="M44.0002 84.8571C66.565 84.8571 84.8574 66.5647 84.8574 44C84.8574 21.4352 66.565 3.14282 44.0002 3.14282C21.4354 3.14282 3.14307 21.4352 3.14307 44C3.14307 66.5647 21.4354 84.8571 44.0002 84.8571Z" stroke="#614FA1" stroke-width="5" stroke-linecap="round" stroke-linejoin="round"/>
</g>
<defs>
<clipPath id="clip0_140_743">
<rect width="88" height="88" fill="white"/>
</clipPath>
</defs>
</svg>
