<svg width="88" height="88" viewBox="0 0 88 88" fill="none" xmlns="http://www.w3.org/2000/svg">
<g clip-path="url(#clip0_140_793)">
<path d="M44.0002 84.8571C66.565 84.8571 84.8574 66.5647 84.8574 44C84.8574 21.4352 66.565 3.14282 44.0002 3.14282C21.4354 3.14282 3.14307 21.4352 3.14307 44C3.14307 66.5647 21.4354 84.8571 44.0002 84.8571Z" stroke="#F9C44A" stroke-width="5" stroke-linecap="round" stroke-linejoin="round"/>
<g filter="url(#filter0_f_140_793)">
<rect x="36.25" y="40.25" width="10.5" height="13.5" rx="2.75" stroke="url(#paint0_linear_140_793)" stroke-width="0.5"/>
</g>
<rect x="36.25" y="40.25" width="10.5" height="13.5" rx="2.75" stroke="url(#paint1_linear_140_793)" stroke-width="0.5"/>
<g filter="url(#filter1_f_140_793)">
<rect x="49.25" y="40.25" width="10.5" height="13.5" rx="2.75" stroke="url(#paint2_linear_140_793)" stroke-width="0.5"/>
</g>
<rect x="49.25" y="40.25" width="10.5" height="13.5" rx="2.75" stroke="url(#paint3_linear_140_793)" stroke-width="0.5"/>
<circle cx="55" cy="47" r="2.8" stroke="#F9C44A" stroke-width="0.4"/>
<path d="M55.0001 44.5806C54.5216 44.5805 54.0538 44.7224 53.6559 44.9882C53.2581 45.254 52.9479 45.6319 52.7648 46.0739C52.5816 46.516 52.5337 47.0025 52.627 47.4718C52.7204 47.9411 52.9508 48.3722 53.2891 48.7106C53.6275 49.049 54.0585 49.2794 54.5279 49.3728C54.9972 49.4661 55.4836 49.4182 55.9257 49.2351C56.3678 49.052 56.7457 48.7419 57.0115 48.3441C57.2774 47.9462 57.4193 47.4784 57.4193 46.9999C57.4193 46.3583 57.1644 45.743 56.7107 45.2892C56.2571 44.8355 55.6417 44.5806 55.0001 44.5806ZM55.87 46.4997L55.9238 46.5769H56.2512L56.367 46.461H56.6727L56.9542 46.1795H57.1804C57.2115 46.263 57.2377 46.3482 57.2589 46.4347H57.0622L56.8266 46.6703H56.5343L56.3515 46.8539H55.7384L55.412 47.1715V47.3038L55.339 47.3185V47.1183L55.6405 46.8168V46.6348L55.87 46.4997ZM56.4899 45.8454C56.5019 45.8454 56.5134 45.8407 56.5219 45.8322C56.5303 45.8237 56.5351 45.8122 56.5351 45.8003V45.2484C56.5734 45.282 56.6107 45.3167 56.647 45.3531C56.6601 45.3662 56.6731 45.3796 56.6862 45.3923C56.6861 45.3934 56.6861 45.3944 56.6862 45.3955V45.8798L56.4204 46.1456H56.1099C56.0979 46.1456 56.0864 46.1503 56.0779 46.1588C56.0695 46.1673 56.0647 46.1787 56.0647 46.1907C56.0647 46.2027 56.0695 46.2142 56.0779 46.2226C56.0864 46.2311 56.0979 46.2359 56.1099 46.2359H56.4571L56.776 45.9173V45.493C56.9283 45.6719 57.0524 45.873 57.1442 46.0892H56.9167L56.6352 46.3707H56.3297L56.2139 46.4866H55.9709L55.9283 46.4253V46.0769H56.212V45.3266L56.0011 45.1157V44.8964C56.159 44.9716 56.3078 45.0644 56.4448 45.173V45.8003C56.4448 45.8122 56.4495 45.8237 56.458 45.8322C56.4665 45.8407 56.478 45.8454 56.4899 45.8454ZM54.6436 46.0319L54.3741 45.7624V45.1556L54.4787 45.0686L54.5633 45.153V45.4267L54.9559 45.8193V46.9685L54.9618 46.9624L54.9944 46.9298L55.0003 46.9239L55.0341 46.9577L55.0455 46.9691V45.8189L55.4381 45.4263V45.153L55.5225 45.0686L55.6271 45.1556V45.7624L55.3576 46.0319V46.7176L55.1841 46.89L55.0755 46.9997L55.1212 47.0453L55.155 47.079L55.1212 47.1128L55.0345 47.1996L55.0029 47.231L55.0007 47.2333L54.9669 47.1996L54.8792 47.1128L54.8454 47.079L54.8792 47.0453L54.9247 46.9997L54.8162 46.89L54.6436 46.7176V46.0319ZM54.955 44.6736V45.2999L54.8399 45.4145L54.9997 45.5743L55.1595 45.4145L55.0453 45.2999V44.6736C55.0453 44.6736 55.0453 44.6722 55.0453 44.6715C55.1894 44.674 55.333 44.69 55.4742 44.7192V44.9887L55.3474 45.1157V45.3892L55.0003 45.7363L54.653 45.3892V45.1157L54.5258 44.9887V44.7192C54.6671 44.6901 54.8108 44.6742 54.955 44.6717V44.6736ZM54.4357 44.7398V44.9858L54.2834 45.1126V45.6728L54.2575 45.6469H54.0725C54.0606 45.6469 54.0491 45.6517 54.0406 45.6602C54.0321 45.6686 54.0274 45.6801 54.0274 45.6921C54.0274 45.7041 54.0321 45.7155 54.0406 45.724C54.0491 45.7325 54.0606 45.7372 54.0725 45.7372H54.22L54.2883 45.8054C54.2925 45.8139 54.2994 45.8207 54.3079 45.825L54.5525 46.0698V46.7553L54.816 47.0186V47.2826L54.9245 47.3912V47.8358H55.0755V47.3914L55.1841 47.2828V47.0182L55.4473 46.7549V46.0694L55.6921 45.8246C55.7006 45.8203 55.7074 45.8134 55.7118 45.805L55.7801 45.7368H55.9275C55.9395 45.7368 55.951 45.7321 55.9594 45.7236C55.9679 45.7152 55.9726 45.7037 55.9726 45.6917C55.9726 45.6797 55.9679 45.6682 55.9594 45.6598C55.951 45.6513 55.9395 45.6465 55.9275 45.6465H55.743L55.7169 45.6728V45.1132L55.5643 44.9858V44.7398C55.6812 44.7688 55.7957 44.8069 55.9067 44.8538L55.9108 44.8558V45.153L56.1217 45.364V45.9869H55.838V46.4141L55.5504 46.5833V46.7797L55.2486 47.0814V47.3319C55.2486 47.3335 55.2486 47.3352 55.2486 47.3368L55.2249 47.3417L55.1281 47.4385V48.2406L55.3075 48.4202L55.4813 48.5938H55.7049L55.8374 48.7263V48.8188C55.7449 48.8188 55.6817 48.8188 55.6381 48.8188L55.0726 48.2524V47.8971H54.9275V48.2524L54.3609 48.819C54.3175 48.819 54.2543 48.819 54.1617 48.819V48.7265L54.2942 48.594H54.518L54.6915 48.4204L54.8709 48.2408V47.4381L54.7749 47.3415L54.7512 47.3366C54.7513 47.335 54.7513 47.3333 54.7512 47.3317V47.081L54.4497 46.7793V46.583L54.1621 46.4137V45.9869H53.878V45.364L54.089 45.153V44.8558L54.0932 44.8538C54.2042 44.8069 54.3187 44.7688 54.4357 44.7398ZM53.2243 45.493V45.9178L53.5429 46.2365H53.8904C53.9023 46.2365 53.9138 46.2317 53.9223 46.2232C53.9308 46.2148 53.9355 46.2033 53.9355 46.1913C53.9355 46.1793 53.9308 46.1679 53.9223 46.1594C53.9138 46.1509 53.9023 46.1462 53.8904 46.1462H53.5804L53.3146 45.8804V45.396C53.3146 45.3949 53.3146 45.3939 53.3146 45.3929C53.3273 45.3796 53.3403 45.3662 53.3538 45.3536C53.3902 45.3173 53.4275 45.2826 53.4657 45.249V45.8008C53.4657 45.8128 53.4705 45.8243 53.479 45.8328C53.4874 45.8412 53.4989 45.846 53.5109 45.846C53.5229 45.846 53.5344 45.8412 53.5428 45.8328C53.5513 45.8243 53.556 45.8128 53.556 45.8008V45.173C53.693 45.0643 53.8418 44.9715 53.9997 44.8964V45.1157L53.7881 45.3266V46.0769H54.072V46.4253L54.0292 46.4866H53.7863L53.6705 46.3707H53.3648L53.0833 46.0892H52.8558C52.9477 45.873 53.0719 45.6719 53.2243 45.493ZM52.8199 46.1801H53.046L53.3283 46.461H53.6338L53.7496 46.5769H54.0763L54.1303 46.4997L54.3596 46.6348V46.817L54.6613 47.1185V47.3187L54.5883 47.304V47.1717L54.2612 46.8543H53.6497L53.4657 46.6703H53.174L52.9384 46.4347H52.7394C52.7612 46.3482 52.7881 46.263 52.8199 46.1795V46.1801ZM52.854 47.9077C52.7326 47.6209 52.6704 47.3125 52.6711 47.0011C52.6709 46.8409 52.6872 46.6811 52.7198 46.5243H52.9006L53.1361 46.7598H53.3128L52.9856 47.228H52.8796C52.8676 47.228 52.8561 47.2328 52.8476 47.2413C52.8392 47.2497 52.8344 47.2612 52.8344 47.2732C52.8344 47.2852 52.8392 47.2966 52.8476 47.3051C52.8561 47.3136 52.8676 47.3183 52.8796 47.3183H53.0339L53.4229 46.7614V46.7598H53.4284L53.6122 46.9434H54.0725L54.0833 46.9518C54.1355 46.9908 54.1818 47.0371 54.2208 47.0892C54.2481 47.1245 54.2653 47.1665 54.2706 47.2108H53.9585L53.8358 47.0883H53.5733L53.2345 47.4271H53.0949C53.0829 47.4271 53.0714 47.4319 53.063 47.4403C53.0545 47.4488 53.0498 47.4603 53.0498 47.4722C53.0498 47.4842 53.0545 47.4957 53.063 47.5042C53.0714 47.5126 53.0829 47.5174 53.0949 47.5174H53.2716L53.6104 47.1786H53.7995L53.8768 47.2559L53.1595 47.9732H53.039C53.027 47.9732 53.0155 47.978 53.007 47.9865C52.9986 47.9949 52.9938 48.0064 52.9938 48.0184C52.9938 48.0304 52.9986 48.0418 53.007 48.0503C53.0155 48.0588 53.027 48.0635 53.039 48.0635H53.197L53.9585 47.3022H54.2455L54.2439 47.304H54.5258C54.5258 47.304 54.6513 47.3759 54.6513 47.6377C54.6513 48.0257 54.3927 48.3207 54.2938 48.4197H54.5645L54.4811 48.5031H54.2569L54.0716 48.6884V48.8184H53.993C53.7753 48.8193 53.5572 48.8215 53.5551 48.8215H53.5496C53.245 48.5789 53.0058 48.264 52.8536 47.9055L52.854 47.9077ZM53.6689 48.912C53.9408 48.9096 54.2865 48.9081 54.4012 48.9104V49.0716L54.2624 49.2104C54.2054 49.1913 54.1492 49.17 54.0935 49.1466C53.9442 49.0834 53.8019 49.0048 53.6689 48.912ZM55.0453 49.329V48.8001L55.1599 48.6855L55.0001 48.5255L54.8399 48.6855L54.9546 48.8001V49.3284C54.7532 49.3249 54.5532 49.2952 54.3596 49.2398L54.4911 49.1083V48.912L54.6632 48.7398L54.7371 48.8137V49.1358C54.7371 49.1478 54.7418 49.1593 54.7503 49.1677C54.7588 49.1762 54.7702 49.181 54.7822 49.181C54.7942 49.181 54.8057 49.1762 54.8141 49.1677C54.8226 49.1593 54.8274 49.1478 54.8274 49.1358V48.7758L54.727 48.6756L54.9997 48.403L55.2718 48.6764L55.1717 48.7765V49.1358C55.1717 49.1478 55.1765 49.1593 55.1849 49.1677C55.1934 49.1762 55.2049 49.181 55.2168 49.181C55.2288 49.181 55.2403 49.1762 55.2488 49.1677C55.2572 49.1593 55.262 49.1478 55.262 49.1358V48.8138L55.3358 48.74L55.508 48.9122V49.1085L55.6395 49.24C55.4461 49.2952 55.2463 49.3249 55.0453 49.3284V49.329ZM55.9067 49.1466C55.8509 49.1702 55.7946 49.1914 55.7377 49.2104L55.5989 49.0716V48.9104C55.7137 48.9081 56.0594 48.9104 56.3313 48.912C56.1983 49.0045 56.056 49.083 55.9067 49.146V49.1466ZM57.146 47.9071C57.0291 48.1838 56.8597 48.4352 56.647 48.6474C56.5849 48.7095 56.5193 48.7682 56.4507 48.8231H56.445C56.4428 48.8231 56.2247 48.8209 56.007 48.8199H55.9285V48.69L55.743 48.5033H55.5196L55.4363 48.4198H55.707C55.6079 48.3217 55.3494 48.0258 55.3494 47.6379C55.3494 47.3757 55.4748 47.3042 55.4748 47.3042H55.7561L55.7545 47.3024H56.0418L56.8031 48.0635H56.9611C56.9731 48.0635 56.9845 48.0588 56.993 48.0503C57.0015 48.0418 57.0062 48.0304 57.0062 48.0184C57.0062 48.0064 57.0015 47.9949 56.993 47.9865C56.9845 47.978 56.9731 47.9732 56.9611 47.9732H56.8404L56.124 47.2569L56.2014 47.1795H56.3892L56.7283 47.5182H56.9049C56.9109 47.5182 56.9167 47.517 56.9222 47.5147C56.9277 47.5125 56.9327 47.5092 56.9369 47.505C56.9411 47.5008 56.9444 47.4958 56.9467 47.4903C56.9489 47.4848 56.9501 47.479 56.9501 47.473C56.9501 47.4671 56.9489 47.4612 56.9467 47.4558C56.9444 47.4503 56.9411 47.4453 56.9369 47.4411C56.9327 47.4369 56.9277 47.4336 56.9222 47.4313C56.9167 47.429 56.9109 47.4279 56.9049 47.4279H56.7656L56.4267 47.089H56.1643L56.0418 47.2115H55.7298C55.735 47.1672 55.7523 47.1252 55.7797 47.09C55.8186 47.0378 55.8649 46.9915 55.9171 46.9526L55.9279 46.9442H56.3882L56.5718 46.7606H56.5773C56.5777 46.7611 56.578 46.7616 56.5783 46.7622L56.9676 47.3191H57.1205C57.1325 47.3191 57.1439 47.3144 57.1524 47.3059C57.1609 47.2974 57.1656 47.2859 57.1656 47.274C57.1656 47.262 57.1609 47.2505 57.1524 47.242C57.1439 47.2336 57.1325 47.2288 57.1205 47.2288H57.0147L56.6872 46.7606H56.8639L57.0995 46.525H57.2803C57.3127 46.6815 57.329 46.8409 57.329 47.0007C57.3295 47.3119 57.2673 47.6199 57.146 47.9065V47.9071Z" fill="#F9C44A"/>
<g filter="url(#filter2_d_140_793)">
<path d="M40.0566 23.0715L40.8408 24.0628" stroke="url(#paint4_radial_140_793)" stroke-width="0.5" stroke-linecap="round" stroke-linejoin="round"/>
</g>
<g filter="url(#filter3_d_140_793)">
<path d="M41.3691 22.2214L42.1533 23.2127" stroke="url(#paint5_radial_140_793)" stroke-width="0.5" stroke-linecap="round" stroke-linejoin="round"/>
</g>
<g filter="url(#filter4_d_140_793)">
<path d="M42.9043 20.0923C42.667 19.7921 41.5873 20.2482 40.4937 21.1138C39.4001 21.9794 38.7067 22.9241 38.944 23.2242C39.1325 23.4639 39.5699 24.0154 39.7584 24.255C39.9958 24.5552 41.0754 24.0991 42.169 23.2335C43.2627 22.3679 43.9561 21.4232 43.7187 21.1231C43.5303 20.8834 43.0928 20.3319 42.9043 20.0923Z" stroke="url(#paint6_radial_140_793)" stroke-width="0.5" stroke-linecap="round" stroke-linejoin="round"/>
</g>
<g filter="url(#filter5_d_140_793)">
<path d="M42.9046 20.093C43.142 20.3932 42.4486 21.3379 41.355 22.2035C40.2613 23.0691 39.1817 23.5251 38.9443 23.225" stroke="url(#paint7_radial_140_793)" stroke-width="0.5" stroke-linecap="round" stroke-linejoin="round"/>
</g>
<circle cx="42" cy="47" r="2.8" stroke="#F9C44A" stroke-width="0.4"/>
<path d="M42.0001 44.5806C41.5216 44.5805 41.0538 44.7224 40.6559 44.9882C40.2581 45.254 39.9479 45.6319 39.7648 46.0739C39.5816 46.516 39.5337 47.0025 39.627 47.4718C39.7204 47.9411 39.9508 48.3722 40.2891 48.7106C40.6275 49.049 41.0585 49.2794 41.5279 49.3728C41.9972 49.4661 42.4836 49.4182 42.9257 49.2351C43.3678 49.052 43.7457 48.7419 44.0115 48.3441C44.2774 47.9462 44.4193 47.4784 44.4193 46.9999C44.4193 46.3583 44.1644 45.743 43.7107 45.2892C43.2571 44.8355 42.6417 44.5806 42.0001 44.5806ZM42.87 46.4997L42.9238 46.5769H43.2512L43.367 46.461H43.6727L43.9542 46.1795H44.1804C44.2115 46.263 44.2377 46.3482 44.2589 46.4347H44.0622L43.8266 46.6703H43.5343L43.3515 46.8539H42.7384L42.412 47.1715V47.3038L42.339 47.3185V47.1183L42.6405 46.8168V46.6348L42.87 46.4997ZM43.4899 45.8454C43.5019 45.8454 43.5134 45.8407 43.5219 45.8322C43.5303 45.8237 43.5351 45.8122 43.5351 45.8003V45.2484C43.5734 45.282 43.6107 45.3167 43.647 45.3531C43.6601 45.3662 43.6731 45.3796 43.6862 45.3923C43.6861 45.3934 43.6861 45.3944 43.6862 45.3955V45.8798L43.4204 46.1456H43.1099C43.0979 46.1456 43.0864 46.1503 43.0779 46.1588C43.0695 46.1673 43.0647 46.1787 43.0647 46.1907C43.0647 46.2027 43.0695 46.2142 43.0779 46.2226C43.0864 46.2311 43.0979 46.2359 43.1099 46.2359H43.4571L43.776 45.9173V45.493C43.9283 45.6719 44.0524 45.873 44.1442 46.0892H43.9167L43.6352 46.3707H43.3297L43.2139 46.4866H42.9709L42.9283 46.4253V46.0769H43.212V45.3266L43.0011 45.1157V44.8964C43.159 44.9716 43.3078 45.0644 43.4448 45.173V45.8003C43.4448 45.8122 43.4495 45.8237 43.458 45.8322C43.4665 45.8407 43.478 45.8454 43.4899 45.8454ZM41.6436 46.0319L41.3741 45.7624V45.1556L41.4787 45.0686L41.5633 45.153V45.4267L41.9559 45.8193V46.9685L41.9618 46.9624L41.9944 46.9298L42.0003 46.9239L42.0341 46.9577L42.0455 46.9691V45.8189L42.4381 45.4263V45.153L42.5225 45.0686L42.6271 45.1556V45.7624L42.3576 46.0319V46.7176L42.1841 46.89L42.0755 46.9997L42.1212 47.0453L42.155 47.079L42.1212 47.1128L42.0345 47.1996L42.0029 47.231L42.0007 47.2333L41.9669 47.1996L41.8792 47.1128L41.8454 47.079L41.8792 47.0453L41.9247 46.9997L41.8162 46.89L41.6436 46.7176V46.0319ZM41.955 44.6736V45.2999L41.8399 45.4145L41.9997 45.5743L42.1595 45.4145L42.0453 45.2999V44.6736C42.0453 44.6736 42.0453 44.6722 42.0453 44.6715C42.1894 44.674 42.333 44.69 42.4742 44.7192V44.9887L42.3474 45.1157V45.3892L42.0003 45.7363L41.653 45.3892V45.1157L41.5258 44.9887V44.7192C41.6671 44.6901 41.8108 44.6742 41.955 44.6717V44.6736ZM41.4357 44.7398V44.9858L41.2834 45.1126V45.6728L41.2575 45.6469H41.0725C41.0606 45.6469 41.0491 45.6517 41.0406 45.6602C41.0321 45.6686 41.0274 45.6801 41.0274 45.6921C41.0274 45.7041 41.0321 45.7155 41.0406 45.724C41.0491 45.7325 41.0606 45.7372 41.0725 45.7372H41.22L41.2883 45.8054C41.2925 45.8139 41.2994 45.8207 41.3079 45.825L41.5525 46.0698V46.7553L41.816 47.0186V47.2826L41.9245 47.3912V47.8358H42.0755V47.3914L42.1841 47.2828V47.0182L42.4473 46.7549V46.0694L42.6921 45.8246C42.7006 45.8203 42.7074 45.8134 42.7118 45.805L42.7801 45.7368H42.9275C42.9395 45.7368 42.951 45.7321 42.9594 45.7236C42.9679 45.7152 42.9726 45.7037 42.9726 45.6917C42.9726 45.6797 42.9679 45.6682 42.9594 45.6598C42.951 45.6513 42.9395 45.6465 42.9275 45.6465H42.743L42.7169 45.6728V45.1132L42.5643 44.9858V44.7398C42.6812 44.7688 42.7957 44.8069 42.9067 44.8538L42.9108 44.8558V45.153L43.1217 45.364V45.9869H42.838V46.4141L42.5504 46.5833V46.7797L42.2486 47.0814V47.3319C42.2486 47.3335 42.2486 47.3352 42.2486 47.3368L42.2249 47.3417L42.1281 47.4385V48.2406L42.3075 48.4202L42.4813 48.5938H42.7049L42.8374 48.7263V48.8188C42.7449 48.8188 42.6817 48.8188 42.6381 48.8188L42.0726 48.2524V47.8971H41.9275V48.2524L41.3609 48.819C41.3175 48.819 41.2543 48.819 41.1617 48.819V48.7265L41.2942 48.594H41.518L41.6915 48.4204L41.8709 48.2408V47.4381L41.7749 47.3415L41.7512 47.3366C41.7513 47.335 41.7513 47.3333 41.7512 47.3317V47.081L41.4497 46.7793V46.583L41.1621 46.4137V45.9869H40.878V45.364L41.089 45.153V44.8558L41.0932 44.8538C41.2042 44.8069 41.3187 44.7688 41.4357 44.7398ZM40.2243 45.493V45.9178L40.5429 46.2365H40.8904C40.9023 46.2365 40.9138 46.2317 40.9223 46.2232C40.9308 46.2148 40.9355 46.2033 40.9355 46.1913C40.9355 46.1793 40.9308 46.1679 40.9223 46.1594C40.9138 46.1509 40.9023 46.1462 40.8904 46.1462H40.5804L40.3146 45.8804V45.396C40.3146 45.3949 40.3146 45.3939 40.3146 45.3929C40.3273 45.3796 40.3403 45.3662 40.3538 45.3536C40.3902 45.3173 40.4275 45.2826 40.4657 45.249V45.8008C40.4657 45.8128 40.4705 45.8243 40.479 45.8328C40.4874 45.8412 40.4989 45.846 40.5109 45.846C40.5229 45.846 40.5344 45.8412 40.5428 45.8328C40.5513 45.8243 40.556 45.8128 40.556 45.8008V45.173C40.693 45.0643 40.8418 44.9715 40.9997 44.8964V45.1157L40.7881 45.3266V46.0769H41.072V46.4253L41.0292 46.4866H40.7863L40.6705 46.3707H40.3648L40.0833 46.0892H39.8558C39.9477 45.873 40.0719 45.6719 40.2243 45.493ZM39.8199 46.1801H40.046L40.3283 46.461H40.6338L40.7496 46.5769H41.0763L41.1303 46.4997L41.3596 46.6348V46.817L41.6613 47.1185V47.3187L41.5883 47.304V47.1717L41.2612 46.8543H40.6497L40.4657 46.6703H40.174L39.9384 46.4347H39.7394C39.7612 46.3482 39.7881 46.263 39.8199 46.1795V46.1801ZM39.854 47.9077C39.7326 47.6209 39.6704 47.3125 39.6711 47.0011C39.6709 46.8409 39.6872 46.6811 39.7198 46.5243H39.9006L40.1361 46.7598H40.3128L39.9856 47.228H39.8796C39.8676 47.228 39.8561 47.2328 39.8476 47.2413C39.8392 47.2497 39.8344 47.2612 39.8344 47.2732C39.8344 47.2852 39.8392 47.2966 39.8476 47.3051C39.8561 47.3136 39.8676 47.3183 39.8796 47.3183H40.0339L40.4229 46.7614V46.7598H40.4284L40.6122 46.9434H41.0725L41.0833 46.9518C41.1355 46.9908 41.1818 47.0371 41.2208 47.0892C41.2481 47.1245 41.2653 47.1665 41.2706 47.2108H40.9585L40.8358 47.0883H40.5733L40.2345 47.4271H40.0949C40.0829 47.4271 40.0714 47.4319 40.063 47.4403C40.0545 47.4488 40.0498 47.4603 40.0498 47.4722C40.0498 47.4842 40.0545 47.4957 40.063 47.5042C40.0714 47.5126 40.0829 47.5174 40.0949 47.5174H40.2716L40.6104 47.1786H40.7995L40.8768 47.2559L40.1595 47.9732H40.039C40.027 47.9732 40.0155 47.978 40.007 47.9865C39.9986 47.9949 39.9938 48.0064 39.9938 48.0184C39.9938 48.0304 39.9986 48.0418 40.007 48.0503C40.0155 48.0588 40.027 48.0635 40.039 48.0635H40.197L40.9585 47.3022H41.2455L41.2439 47.304H41.5258C41.5258 47.304 41.6513 47.3759 41.6513 47.6377C41.6513 48.0257 41.3927 48.3207 41.2938 48.4197H41.5645L41.4811 48.5031H41.2569L41.0716 48.6884V48.8184H40.993C40.7753 48.8193 40.5572 48.8215 40.5551 48.8215H40.5496C40.245 48.5789 40.0058 48.264 39.8536 47.9055L39.854 47.9077ZM40.6689 48.912C40.9408 48.9096 41.2865 48.9081 41.4012 48.9104V49.0716L41.2624 49.2104C41.2054 49.1913 41.1492 49.17 41.0935 49.1466C40.9442 49.0834 40.8019 49.0048 40.6689 48.912ZM42.0453 49.329V48.8001L42.1599 48.6855L42.0001 48.5255L41.8399 48.6855L41.9546 48.8001V49.3284C41.7532 49.3249 41.5532 49.2952 41.3596 49.2398L41.4911 49.1083V48.912L41.6632 48.7398L41.7371 48.8137V49.1358C41.7371 49.1478 41.7418 49.1593 41.7503 49.1677C41.7588 49.1762 41.7702 49.181 41.7822 49.181C41.7942 49.181 41.8057 49.1762 41.8141 49.1677C41.8226 49.1593 41.8274 49.1478 41.8274 49.1358V48.7758L41.727 48.6756L41.9997 48.403L42.2718 48.6764L42.1717 48.7765V49.1358C42.1717 49.1478 42.1765 49.1593 42.1849 49.1677C42.1934 49.1762 42.2049 49.181 42.2168 49.181C42.2288 49.181 42.2403 49.1762 42.2488 49.1677C42.2572 49.1593 42.262 49.1478 42.262 49.1358V48.8138L42.3358 48.74L42.508 48.9122V49.1085L42.6395 49.24C42.4461 49.2952 42.2463 49.3249 42.0453 49.3284V49.329ZM42.9067 49.1466C42.8509 49.1702 42.7946 49.1914 42.7377 49.2104L42.5989 49.0716V48.9104C42.7137 48.9081 43.0594 48.9104 43.3313 48.912C43.1983 49.0045 43.056 49.083 42.9067 49.146V49.1466ZM44.146 47.9071C44.0291 48.1838 43.8597 48.4352 43.647 48.6474C43.5849 48.7095 43.5193 48.7682 43.4507 48.8231H43.445C43.4428 48.8231 43.2247 48.8209 43.007 48.8199H42.9285V48.69L42.743 48.5033H42.5196L42.4363 48.4198H42.707C42.6079 48.3217 42.3494 48.0258 42.3494 47.6379C42.3494 47.3757 42.4748 47.3042 42.4748 47.3042H42.7561L42.7545 47.3024H43.0418L43.8031 48.0635H43.9611C43.9731 48.0635 43.9845 48.0588 43.993 48.0503C44.0015 48.0418 44.0062 48.0304 44.0062 48.0184C44.0062 48.0064 44.0015 47.9949 43.993 47.9865C43.9845 47.978 43.9731 47.9732 43.9611 47.9732H43.8404L43.124 47.2569L43.2014 47.1795H43.3892L43.7283 47.5182H43.9049C43.9109 47.5182 43.9167 47.517 43.9222 47.5147C43.9277 47.5125 43.9327 47.5092 43.9369 47.505C43.9411 47.5008 43.9444 47.4958 43.9467 47.4903C43.9489 47.4848 43.9501 47.479 43.9501 47.473C43.9501 47.4671 43.9489 47.4612 43.9467 47.4558C43.9444 47.4503 43.9411 47.4453 43.9369 47.4411C43.9327 47.4369 43.9277 47.4336 43.9222 47.4313C43.9167 47.429 43.9109 47.4279 43.9049 47.4279H43.7656L43.4267 47.089H43.1643L43.0418 47.2115H42.7298C42.735 47.1672 42.7523 47.1252 42.7797 47.09C42.8186 47.0378 42.8649 46.9915 42.9171 46.9526L42.9279 46.9442H43.3882L43.5718 46.7606H43.5773C43.5777 46.7611 43.578 46.7616 43.5783 46.7622L43.9676 47.3191H44.1205C44.1325 47.3191 44.1439 47.3144 44.1524 47.3059C44.1609 47.2974 44.1656 47.2859 44.1656 47.274C44.1656 47.262 44.1609 47.2505 44.1524 47.242C44.1439 47.2336 44.1325 47.2288 44.1205 47.2288H44.0147L43.6872 46.7606H43.8639L44.0995 46.525H44.2803C44.3127 46.6815 44.329 46.8409 44.329 47.0007C44.3295 47.3119 44.2673 47.6199 44.146 47.9065V47.9071Z" fill="#F9C44A"/>
<circle cx="29" cy="47" r="2.8" stroke="#F9C44A" stroke-width="0.4"/>
<path d="M29.0001 44.5806C28.5216 44.5805 28.0538 44.7224 27.6559 44.9882C27.2581 45.254 26.9479 45.6319 26.7648 46.0739C26.5816 46.516 26.5337 47.0025 26.627 47.4718C26.7204 47.9411 26.9508 48.3722 27.2891 48.7106C27.6275 49.049 28.0585 49.2794 28.5279 49.3728C28.9972 49.4661 29.4836 49.4182 29.9257 49.2351C30.3678 49.052 30.7457 48.7419 31.0115 48.3441C31.2774 47.9462 31.4193 47.4784 31.4193 46.9999C31.4193 46.3583 31.1644 45.743 30.7107 45.2892C30.2571 44.8355 29.6417 44.5806 29.0001 44.5806ZM29.87 46.4997L29.9238 46.5769H30.2512L30.367 46.461H30.6727L30.9542 46.1795H31.1804C31.2115 46.263 31.2377 46.3482 31.2589 46.4347H31.0622L30.8266 46.6703H30.5343L30.3515 46.8539H29.7384L29.412 47.1715V47.3038L29.339 47.3185V47.1183L29.6405 46.8168V46.6348L29.87 46.4997ZM30.4899 45.8454C30.5019 45.8454 30.5134 45.8407 30.5219 45.8322C30.5303 45.8237 30.5351 45.8122 30.5351 45.8003V45.2484C30.5734 45.282 30.6107 45.3167 30.647 45.3531C30.6601 45.3662 30.6731 45.3796 30.6862 45.3923C30.6861 45.3934 30.6861 45.3944 30.6862 45.3955V45.8798L30.4204 46.1456H30.1099C30.0979 46.1456 30.0864 46.1503 30.0779 46.1588C30.0695 46.1673 30.0647 46.1787 30.0647 46.1907C30.0647 46.2027 30.0695 46.2142 30.0779 46.2226C30.0864 46.2311 30.0979 46.2359 30.1099 46.2359H30.4571L30.776 45.9173V45.493C30.9283 45.6719 31.0524 45.873 31.1442 46.0892H30.9167L30.6352 46.3707H30.3297L30.2139 46.4866H29.9709L29.9283 46.4253V46.0769H30.212V45.3266L30.0011 45.1157V44.8964C30.159 44.9716 30.3078 45.0644 30.4448 45.173V45.8003C30.4448 45.8122 30.4495 45.8237 30.458 45.8322C30.4665 45.8407 30.478 45.8454 30.4899 45.8454ZM28.6436 46.0319L28.3741 45.7624V45.1556L28.4787 45.0686L28.5633 45.153V45.4267L28.9559 45.8193V46.9685L28.9618 46.9624L28.9944 46.9298L29.0003 46.9239L29.0341 46.9577L29.0455 46.9691V45.8189L29.4381 45.4263V45.153L29.5225 45.0686L29.6271 45.1556V45.7624L29.3576 46.0319V46.7176L29.1841 46.89L29.0755 46.9997L29.1212 47.0453L29.155 47.079L29.1212 47.1128L29.0345 47.1996L29.0029 47.231L29.0007 47.2333L28.9669 47.1996L28.8792 47.1128L28.8454 47.079L28.8792 47.0453L28.9247 46.9997L28.8162 46.89L28.6436 46.7176V46.0319ZM28.955 44.6736V45.2999L28.8399 45.4145L28.9997 45.5743L29.1595 45.4145L29.0453 45.2999V44.6736C29.0453 44.6736 29.0453 44.6722 29.0453 44.6715C29.1894 44.674 29.333 44.69 29.4742 44.7192V44.9887L29.3474 45.1157V45.3892L29.0003 45.7363L28.653 45.3892V45.1157L28.5258 44.9887V44.7192C28.6671 44.6901 28.8108 44.6742 28.955 44.6717V44.6736ZM28.4357 44.7398V44.9858L28.2834 45.1126V45.6728L28.2575 45.6469H28.0725C28.0606 45.6469 28.0491 45.6517 28.0406 45.6602C28.0321 45.6686 28.0274 45.6801 28.0274 45.6921C28.0274 45.7041 28.0321 45.7155 28.0406 45.724C28.0491 45.7325 28.0606 45.7372 28.0725 45.7372H28.22L28.2883 45.8054C28.2925 45.8139 28.2994 45.8207 28.3079 45.825L28.5525 46.0698V46.7553L28.816 47.0186V47.2826L28.9245 47.3912V47.8358H29.0755V47.3914L29.1841 47.2828V47.0182L29.4473 46.7549V46.0694L29.6921 45.8246C29.7006 45.8203 29.7074 45.8134 29.7118 45.805L29.7801 45.7368H29.9275C29.9395 45.7368 29.951 45.7321 29.9594 45.7236C29.9679 45.7152 29.9726 45.7037 29.9726 45.6917C29.9726 45.6797 29.9679 45.6682 29.9594 45.6598C29.951 45.6513 29.9395 45.6465 29.9275 45.6465H29.743L29.7169 45.6728V45.1132L29.5643 44.9858V44.7398C29.6812 44.7688 29.7957 44.8069 29.9067 44.8538L29.9108 44.8558V45.153L30.1217 45.364V45.9869H29.838V46.4141L29.5504 46.5833V46.7797L29.2486 47.0814V47.3319C29.2486 47.3335 29.2486 47.3352 29.2486 47.3368L29.2249 47.3417L29.1281 47.4385V48.2406L29.3075 48.4202L29.4813 48.5938H29.7049L29.8374 48.7263V48.8188C29.7449 48.8188 29.6817 48.8188 29.6381 48.8188L29.0726 48.2524V47.8971H28.9275V48.2524L28.3609 48.819C28.3175 48.819 28.2543 48.819 28.1617 48.819V48.7265L28.2942 48.594H28.518L28.6915 48.4204L28.8709 48.2408V47.4381L28.7749 47.3415L28.7512 47.3366C28.7513 47.335 28.7513 47.3333 28.7512 47.3317V47.081L28.4497 46.7793V46.583L28.1621 46.4137V45.9869H27.878V45.364L28.089 45.153V44.8558L28.0932 44.8538C28.2042 44.8069 28.3187 44.7688 28.4357 44.7398ZM27.2243 45.493V45.9178L27.5429 46.2365H27.8904C27.9023 46.2365 27.9138 46.2317 27.9223 46.2232C27.9308 46.2148 27.9355 46.2033 27.9355 46.1913C27.9355 46.1793 27.9308 46.1679 27.9223 46.1594C27.9138 46.1509 27.9023 46.1462 27.8904 46.1462H27.5804L27.3146 45.8804V45.396C27.3146 45.3949 27.3146 45.3939 27.3146 45.3929C27.3273 45.3796 27.3403 45.3662 27.3538 45.3536C27.3902 45.3173 27.4275 45.2826 27.4657 45.249V45.8008C27.4657 45.8128 27.4705 45.8243 27.479 45.8328C27.4874 45.8412 27.4989 45.846 27.5109 45.846C27.5229 45.846 27.5344 45.8412 27.5428 45.8328C27.5513 45.8243 27.556 45.8128 27.556 45.8008V45.173C27.693 45.0643 27.8418 44.9715 27.9997 44.8964V45.1157L27.7881 45.3266V46.0769H28.072V46.4253L28.0292 46.4866H27.7863L27.6705 46.3707H27.3648L27.0833 46.0892H26.8558C26.9477 45.873 27.0719 45.6719 27.2243 45.493ZM26.8199 46.1801H27.046L27.3283 46.461H27.6338L27.7496 46.5769H28.0763L28.1303 46.4997L28.3596 46.6348V46.817L28.6613 47.1185V47.3187L28.5883 47.304V47.1717L28.2612 46.8543H27.6497L27.4657 46.6703H27.174L26.9384 46.4347H26.7394C26.7612 46.3482 26.7881 46.263 26.8199 46.1795V46.1801ZM26.854 47.9077C26.7326 47.6209 26.6704 47.3125 26.6711 47.0011C26.6709 46.8409 26.6872 46.6811 26.7198 46.5243H26.9006L27.1361 46.7598H27.3128L26.9856 47.228H26.8796C26.8676 47.228 26.8561 47.2328 26.8476 47.2413C26.8392 47.2497 26.8344 47.2612 26.8344 47.2732C26.8344 47.2852 26.8392 47.2966 26.8476 47.3051C26.8561 47.3136 26.8676 47.3183 26.8796 47.3183H27.0339L27.4229 46.7614V46.7598H27.4284L27.6122 46.9434H28.0725L28.0833 46.9518C28.1355 46.9908 28.1818 47.0371 28.2208 47.0892C28.2481 47.1245 28.2653 47.1665 28.2706 47.2108H27.9585L27.8358 47.0883H27.5733L27.2345 47.4271H27.0949C27.0829 47.4271 27.0714 47.4319 27.063 47.4403C27.0545 47.4488 27.0498 47.4603 27.0498 47.4722C27.0498 47.4842 27.0545 47.4957 27.063 47.5042C27.0714 47.5126 27.0829 47.5174 27.0949 47.5174H27.2716L27.6104 47.1786H27.7995L27.8768 47.2559L27.1595 47.9732H27.039C27.027 47.9732 27.0155 47.978 27.007 47.9865C26.9986 47.9949 26.9938 48.0064 26.9938 48.0184C26.9938 48.0304 26.9986 48.0418 27.007 48.0503C27.0155 48.0588 27.027 48.0635 27.039 48.0635H27.197L27.9585 47.3022H28.2455L28.2439 47.304H28.5258C28.5258 47.304 28.6513 47.3759 28.6513 47.6377C28.6513 48.0257 28.3927 48.3207 28.2938 48.4197H28.5645L28.4811 48.5031H28.2569L28.0716 48.6884V48.8184H27.993C27.7753 48.8193 27.5572 48.8215 27.5551 48.8215H27.5496C27.245 48.5789 27.0058 48.264 26.8536 47.9055L26.854 47.9077ZM27.6689 48.912C27.9408 48.9096 28.2865 48.9081 28.4012 48.9104V49.0716L28.2624 49.2104C28.2054 49.1913 28.1492 49.17 28.0935 49.1466C27.9442 49.0834 27.8019 49.0048 27.6689 48.912ZM29.0453 49.329V48.8001L29.1599 48.6855L29.0001 48.5255L28.8399 48.6855L28.9546 48.8001V49.3284C28.7532 49.3249 28.5532 49.2952 28.3596 49.2398L28.4911 49.1083V48.912L28.6632 48.7398L28.7371 48.8137V49.1358C28.7371 49.1478 28.7418 49.1593 28.7503 49.1677C28.7588 49.1762 28.7702 49.181 28.7822 49.181C28.7942 49.181 28.8057 49.1762 28.8141 49.1677C28.8226 49.1593 28.8274 49.1478 28.8274 49.1358V48.7758L28.727 48.6756L28.9997 48.403L29.2718 48.6764L29.1717 48.7765V49.1358C29.1717 49.1478 29.1765 49.1593 29.1849 49.1677C29.1934 49.1762 29.2049 49.181 29.2168 49.181C29.2288 49.181 29.2403 49.1762 29.2488 49.1677C29.2572 49.1593 29.262 49.1478 29.262 49.1358V48.8138L29.3358 48.74L29.508 48.9122V49.1085L29.6395 49.24C29.4461 49.2952 29.2463 49.3249 29.0453 49.3284V49.329ZM29.9067 49.1466C29.8509 49.1702 29.7946 49.1914 29.7377 49.2104L29.5989 49.0716V48.9104C29.7137 48.9081 30.0594 48.9104 30.3313 48.912C30.1983 49.0045 30.056 49.083 29.9067 49.146V49.1466ZM31.146 47.9071C31.0291 48.1838 30.8597 48.4352 30.647 48.6474C30.5849 48.7095 30.5193 48.7682 30.4507 48.8231H30.445C30.4428 48.8231 30.2247 48.8209 30.007 48.8199H29.9285V48.69L29.743 48.5033H29.5196L29.4363 48.4198H29.707C29.6079 48.3217 29.3494 48.0258 29.3494 47.6379C29.3494 47.3757 29.4748 47.3042 29.4748 47.3042H29.7561L29.7545 47.3024H30.0418L30.8031 48.0635H30.9611C30.9731 48.0635 30.9845 48.0588 30.993 48.0503C31.0015 48.0418 31.0062 48.0304 31.0062 48.0184C31.0062 48.0064 31.0015 47.9949 30.993 47.9865C30.9845 47.978 30.9731 47.9732 30.9611 47.9732H30.8403L30.124 47.2569L30.2014 47.1795H30.3892L30.7283 47.5182H30.9049C30.9109 47.5182 30.9167 47.517 30.9222 47.5147C30.9277 47.5125 30.9327 47.5092 30.9369 47.505C30.9411 47.5008 30.9444 47.4958 30.9467 47.4903C30.9489 47.4848 30.9501 47.479 30.9501 47.473C30.9501 47.4671 30.9489 47.4612 30.9467 47.4558C30.9444 47.4503 30.9411 47.4453 30.9369 47.4411C30.9327 47.4369 30.9277 47.4336 30.9222 47.4313C30.9167 47.429 30.9109 47.4279 30.9049 47.4279H30.7656L30.4267 47.089H30.1643L30.0418 47.2115H29.7298C29.735 47.1672 29.7523 47.1252 29.7797 47.09C29.8186 47.0378 29.8649 46.9915 29.9171 46.9526L29.9279 46.9442H30.3882L30.5718 46.7606H30.5773C30.5777 46.7611 30.578 46.7616 30.5783 46.7622L30.9676 47.3191H31.1205C31.1325 47.3191 31.1439 47.3144 31.1524 47.3059C31.1609 47.2974 31.1656 47.2859 31.1656 47.274C31.1656 47.262 31.1609 47.2505 31.1524 47.242C31.1439 47.2336 31.1325 47.2288 31.1205 47.2288H31.0147L30.6872 46.7606H30.8639L31.0995 46.525H31.2803C31.3127 46.6815 31.329 46.8409 31.329 47.0007C31.3295 47.3119 31.2673 47.6199 31.146 47.9065V47.9071Z" fill="#F9C44A"/>
<g opacity="0.66" filter="url(#filter6_f_140_793)">
<rect x="23.25" y="40.25" width="10.5" height="13.5" rx="2.75" stroke="url(#paint8_linear_140_793)" stroke-width="0.5"/>
</g>
<rect x="23.25" y="40.25" width="10.5" height="13.5" rx="2.75" stroke="url(#paint9_linear_140_793)" stroke-width="0.5"/>
<path d="M65 49.5V59.4023H23" stroke="#F9C44A" stroke-width="1.5" stroke-linecap="round"/>
<path d="M68.4982 39C69.3261 39 70 39.6386 70 40.4231C70 41.1167 69.8755 41.6948 69.1813 41.8187V48.4075C69.1813 49.1659 68.9612 50 68.0792 50H65V48.7488H67.5806C67.7781 48.7488 67.9408 48.5974 67.9408 48.4075V41.8187C67.2465 41.6948 66.9964 41.1167 66.9964 40.4231C66.9964 39.6386 67.6703 39 68.4982 39Z" fill="#F9C44A"/>
<g filter="url(#filter7_d_140_793)">
<path d="M23.0476 31.4241L22.0215 32.1617" stroke="url(#paint10_radial_140_793)" stroke-width="0.5" stroke-linecap="round" stroke-linejoin="round"/>
</g>
<g filter="url(#filter8_d_140_793)">
<path d="M23.8362 32.7712L22.8101 33.5112" stroke="url(#paint11_radial_140_793)" stroke-width="0.5" stroke-linecap="round" stroke-linejoin="round"/>
</g>
<g filter="url(#filter9_d_140_793)">
<path d="M24.867 33.9463L23.8408 34.6862" stroke="url(#paint12_radial_140_793)" stroke-width="0.5" stroke-linecap="round" stroke-linejoin="round"/>
</g>
<g filter="url(#filter10_d_140_793)">
<path d="M25.8961 34.3995C26.2079 34.1762 25.7983 33.0756 24.9839 31.9447C24.1695 30.8138 23.2551 30.0786 22.9456 30.3019C22.699 30.4811 22.1266 30.8906 21.8799 31.0698C21.5681 31.2932 21.9776 32.3938 22.792 33.5246C23.6064 34.6555 24.5209 35.3908 24.8304 35.1674C25.077 34.9882 25.6494 34.5787 25.8961 34.3995Z" stroke="url(#paint13_radial_140_793)" stroke-width="0.5" stroke-linecap="round" stroke-linejoin="round"/>
</g>
<g filter="url(#filter11_d_140_793)">
<path d="M25.8958 34.3994C25.584 34.6227 24.6719 33.8874 23.8575 32.7566C23.0431 31.6257 22.6336 30.5275 22.9453 30.3018" stroke="url(#paint14_radial_140_793)" stroke-width="0.5" stroke-linecap="round" stroke-linejoin="round"/>
</g>
<g filter="url(#filter12_d_140_793)">
<path d="M47.2886 33.1772L48.0727 34.1685" stroke="url(#paint15_radial_140_793)" stroke-width="0.5" stroke-linecap="round" stroke-linejoin="round"/>
</g>
<g filter="url(#filter13_d_140_793)">
<path d="M48.6006 32.3274L49.3847 33.3186" stroke="url(#paint16_radial_140_793)" stroke-width="0.5" stroke-linecap="round" stroke-linejoin="round"/>
</g>
<g filter="url(#filter14_d_140_793)">
<path d="M49.7295 31.2456L50.5136 32.2392" stroke="url(#paint17_radial_140_793)" stroke-width="0.5" stroke-linecap="round" stroke-linejoin="round"/>
</g>
<g filter="url(#filter15_d_140_793)">
<path d="M50.1367 30.1975C49.8994 29.8973 48.8197 30.3534 47.7261 31.219C46.6325 32.0846 45.9391 33.0293 46.1764 33.3294C46.3649 33.5691 46.8024 34.1206 46.9908 34.3602C47.2282 34.6604 48.3078 34.2043 49.4015 33.3388C50.4951 32.4732 51.1885 31.5285 50.9511 31.2283C50.7627 30.9886 50.3252 30.4372 50.1367 30.1975Z" stroke="url(#paint18_radial_140_793)" stroke-width="0.5" stroke-linecap="round" stroke-linejoin="round"/>
</g>
<g filter="url(#filter16_d_140_793)">
<path d="M50.1371 30.1982C50.3744 30.4984 49.681 31.4431 48.5874 32.3087C47.4938 33.1743 46.4141 33.6304 46.1768 33.3302" stroke="url(#paint19_radial_140_793)" stroke-width="0.5" stroke-linecap="round" stroke-linejoin="round"/>
</g>
<path d="M18 45.4023V35.4023H60" stroke="#F9C44A" stroke-width="1.5" stroke-linecap="round"/>
</g>
<defs>
<filter id="filter0_f_140_793" x="30" y="34" width="23" height="26" filterUnits="userSpaceOnUse" color-interpolation-filters="sRGB">
<feFlood flood-opacity="0" result="BackgroundImageFix"/>
<feBlend mode="normal" in="SourceGraphic" in2="BackgroundImageFix" result="shape"/>
<feGaussianBlur stdDeviation="3" result="effect1_foregroundBlur_140_793"/>
</filter>
<filter id="filter1_f_140_793" x="39" y="30" width="31" height="34" filterUnits="userSpaceOnUse" color-interpolation-filters="sRGB">
<feFlood flood-opacity="0" result="BackgroundImageFix"/>
<feBlend mode="normal" in="SourceGraphic" in2="BackgroundImageFix" result="shape"/>
<feGaussianBlur stdDeviation="5" result="effect1_foregroundBlur_140_793"/>
</filter>
<filter id="filter2_d_140_793" x="33.8066" y="16.8215" width="13.2842" height="13.4912" filterUnits="userSpaceOnUse" color-interpolation-filters="sRGB">
<feFlood flood-opacity="0" result="BackgroundImageFix"/>
<feColorMatrix in="SourceAlpha" type="matrix" values="0 0 0 0 0 0 0 0 0 0 0 0 0 0 0 0 0 0 127 0" result="hardAlpha"/>
<feOffset/>
<feGaussianBlur stdDeviation="3"/>
<feColorMatrix type="matrix" values="0 0 0 0 1 0 0 0 0 0.937255 0 0 0 0 0.341176 0 0 0 0.5 0"/>
<feBlend mode="normal" in2="BackgroundImageFix" result="effect1_dropShadow_140_793"/>
<feBlend mode="normal" in="SourceGraphic" in2="effect1_dropShadow_140_793" result="shape"/>
</filter>
<filter id="filter3_d_140_793" x="35.1191" y="15.9714" width="13.2842" height="13.4912" filterUnits="userSpaceOnUse" color-interpolation-filters="sRGB">
<feFlood flood-opacity="0" result="BackgroundImageFix"/>
<feColorMatrix in="SourceAlpha" type="matrix" values="0 0 0 0 0 0 0 0 0 0 0 0 0 0 0 0 0 0 127 0" result="hardAlpha"/>
<feOffset/>
<feGaussianBlur stdDeviation="3"/>
<feColorMatrix type="matrix" values="0 0 0 0 1 0 0 0 0 0.937255 0 0 0 0 0.341176 0 0 0 0.5 0"/>
<feBlend mode="normal" in2="BackgroundImageFix" result="effect1_dropShadow_140_793"/>
<feBlend mode="normal" in="SourceGraphic" in2="effect1_dropShadow_140_793" result="shape"/>
</filter>
<filter id="filter4_d_140_793" x="32.6475" y="13.75" width="17.3677" height="16.8472" filterUnits="userSpaceOnUse" color-interpolation-filters="sRGB">
<feFlood flood-opacity="0" result="BackgroundImageFix"/>
<feColorMatrix in="SourceAlpha" type="matrix" values="0 0 0 0 0 0 0 0 0 0 0 0 0 0 0 0 0 0 127 0" result="hardAlpha"/>
<feOffset/>
<feGaussianBlur stdDeviation="3"/>
<feColorMatrix type="matrix" values="0 0 0 0 1 0 0 0 0 0.937255 0 0 0 0 0.341176 0 0 0 0.5 0"/>
<feBlend mode="normal" in2="BackgroundImageFix" result="effect1_dropShadow_140_793"/>
<feBlend mode="normal" in="SourceGraphic" in2="effect1_dropShadow_140_793" result="shape"/>
</filter>
<filter id="filter5_d_140_793" x="32.6943" y="13.843" width="16.5068" height="15.7241" filterUnits="userSpaceOnUse" color-interpolation-filters="sRGB">
<feFlood flood-opacity="0" result="BackgroundImageFix"/>
<feColorMatrix in="SourceAlpha" type="matrix" values="0 0 0 0 0 0 0 0 0 0 0 0 0 0 0 0 0 0 127 0" result="hardAlpha"/>
<feOffset/>
<feGaussianBlur stdDeviation="3"/>
<feColorMatrix type="matrix" values="0 0 0 0 1 0 0 0 0 0.937255 0 0 0 0 0.341176 0 0 0 0.5 0"/>
<feBlend mode="normal" in2="BackgroundImageFix" result="effect1_dropShadow_140_793"/>
<feBlend mode="normal" in="SourceGraphic" in2="effect1_dropShadow_140_793" result="shape"/>
</filter>
<filter id="filter6_f_140_793" x="13" y="30" width="31" height="34" filterUnits="userSpaceOnUse" color-interpolation-filters="sRGB">
<feFlood flood-opacity="0" result="BackgroundImageFix"/>
<feBlend mode="normal" in="SourceGraphic" in2="BackgroundImageFix" result="shape"/>
<feGaussianBlur stdDeviation="5" result="effect1_foregroundBlur_140_793"/>
</filter>
<filter id="filter7_d_140_793" x="15.7715" y="25.1741" width="13.5264" height="13.2375" filterUnits="userSpaceOnUse" color-interpolation-filters="sRGB">
<feFlood flood-opacity="0" result="BackgroundImageFix"/>
<feColorMatrix in="SourceAlpha" type="matrix" values="0 0 0 0 0 0 0 0 0 0 0 0 0 0 0 0 0 0 127 0" result="hardAlpha"/>
<feOffset/>
<feGaussianBlur stdDeviation="3"/>
<feColorMatrix type="matrix" values="0 0 0 0 1 0 0 0 0 0.937255 0 0 0 0 0.341176 0 0 0 0.5 0"/>
<feBlend mode="normal" in2="BackgroundImageFix" result="effect1_dropShadow_140_793"/>
<feBlend mode="normal" in="SourceGraphic" in2="effect1_dropShadow_140_793" result="shape"/>
</filter>
<filter id="filter8_d_140_793" x="16.5601" y="26.5212" width="13.5264" height="13.24" filterUnits="userSpaceOnUse" color-interpolation-filters="sRGB">
<feFlood flood-opacity="0" result="BackgroundImageFix"/>
<feColorMatrix in="SourceAlpha" type="matrix" values="0 0 0 0 0 0 0 0 0 0 0 0 0 0 0 0 0 0 127 0" result="hardAlpha"/>
<feOffset/>
<feGaussianBlur stdDeviation="3"/>
<feColorMatrix type="matrix" values="0 0 0 0 1 0 0 0 0 0.937255 0 0 0 0 0.341176 0 0 0 0.5 0"/>
<feBlend mode="normal" in2="BackgroundImageFix" result="effect1_dropShadow_140_793"/>
<feBlend mode="normal" in="SourceGraphic" in2="effect1_dropShadow_140_793" result="shape"/>
</filter>
<filter id="filter9_d_140_793" x="17.5908" y="27.6963" width="13.5264" height="13.24" filterUnits="userSpaceOnUse" color-interpolation-filters="sRGB">
<feFlood flood-opacity="0" result="BackgroundImageFix"/>
<feColorMatrix in="SourceAlpha" type="matrix" values="0 0 0 0 0 0 0 0 0 0 0 0 0 0 0 0 0 0 127 0" result="hardAlpha"/>
<feOffset/>
<feGaussianBlur stdDeviation="3"/>
<feColorMatrix type="matrix" values="0 0 0 0 1 0 0 0 0 0.937255 0 0 0 0 0.341176 0 0 0 0.5 0"/>
<feBlend mode="normal" in2="BackgroundImageFix" result="effect1_dropShadow_140_793"/>
<feBlend mode="normal" in="SourceGraphic" in2="effect1_dropShadow_140_793" result="shape"/>
</filter>
<filter id="filter10_d_140_793" x="15.5254" y="24.012" width="16.7251" height="17.4456" filterUnits="userSpaceOnUse" color-interpolation-filters="sRGB">
<feFlood flood-opacity="0" result="BackgroundImageFix"/>
<feColorMatrix in="SourceAlpha" type="matrix" values="0 0 0 0 0 0 0 0 0 0 0 0 0 0 0 0 0 0 127 0" result="hardAlpha"/>
<feOffset/>
<feGaussianBlur stdDeviation="3"/>
<feColorMatrix type="matrix" values="0 0 0 0 1 0 0 0 0 0.937255 0 0 0 0 0.341176 0 0 0 0.5 0"/>
<feBlend mode="normal" in2="BackgroundImageFix" result="effect1_dropShadow_140_793"/>
<feBlend mode="normal" in="SourceGraphic" in2="effect1_dropShadow_140_793" result="shape"/>
</filter>
<filter id="filter11_d_140_793" x="16.5908" y="24.0518" width="15.5552" height="16.6377" filterUnits="userSpaceOnUse" color-interpolation-filters="sRGB">
<feFlood flood-opacity="0" result="BackgroundImageFix"/>
<feColorMatrix in="SourceAlpha" type="matrix" values="0 0 0 0 0 0 0 0 0 0 0 0 0 0 0 0 0 0 127 0" result="hardAlpha"/>
<feOffset/>
<feGaussianBlur stdDeviation="3"/>
<feColorMatrix type="matrix" values="0 0 0 0 1 0 0 0 0 0.937255 0 0 0 0 0.341176 0 0 0 0.5 0"/>
<feBlend mode="normal" in2="BackgroundImageFix" result="effect1_dropShadow_140_793"/>
<feBlend mode="normal" in="SourceGraphic" in2="effect1_dropShadow_140_793" result="shape"/>
</filter>
<filter id="filter12_d_140_793" x="41.0386" y="26.9272" width="13.2842" height="13.4912" filterUnits="userSpaceOnUse" color-interpolation-filters="sRGB">
<feFlood flood-opacity="0" result="BackgroundImageFix"/>
<feColorMatrix in="SourceAlpha" type="matrix" values="0 0 0 0 0 0 0 0 0 0 0 0 0 0 0 0 0 0 127 0" result="hardAlpha"/>
<feOffset/>
<feGaussianBlur stdDeviation="3"/>
<feColorMatrix type="matrix" values="0 0 0 0 1 0 0 0 0 0.937255 0 0 0 0 0.341176 0 0 0 0.5 0"/>
<feBlend mode="normal" in2="BackgroundImageFix" result="effect1_dropShadow_140_793"/>
<feBlend mode="normal" in="SourceGraphic" in2="effect1_dropShadow_140_793" result="shape"/>
</filter>
<filter id="filter13_d_140_793" x="42.3506" y="26.0774" width="13.2842" height="13.4912" filterUnits="userSpaceOnUse" color-interpolation-filters="sRGB">
<feFlood flood-opacity="0" result="BackgroundImageFix"/>
<feColorMatrix in="SourceAlpha" type="matrix" values="0 0 0 0 0 0 0 0 0 0 0 0 0 0 0 0 0 0 127 0" result="hardAlpha"/>
<feOffset/>
<feGaussianBlur stdDeviation="3"/>
<feColorMatrix type="matrix" values="0 0 0 0 1 0 0 0 0 0.937255 0 0 0 0 0.341176 0 0 0 0.5 0"/>
<feBlend mode="normal" in2="BackgroundImageFix" result="effect1_dropShadow_140_793"/>
<feBlend mode="normal" in="SourceGraphic" in2="effect1_dropShadow_140_793" result="shape"/>
</filter>
<filter id="filter14_d_140_793" x="43.4795" y="24.9956" width="13.2842" height="13.4937" filterUnits="userSpaceOnUse" color-interpolation-filters="sRGB">
<feFlood flood-opacity="0" result="BackgroundImageFix"/>
<feColorMatrix in="SourceAlpha" type="matrix" values="0 0 0 0 0 0 0 0 0 0 0 0 0 0 0 0 0 0 127 0" result="hardAlpha"/>
<feOffset/>
<feGaussianBlur stdDeviation="3"/>
<feColorMatrix type="matrix" values="0 0 0 0 1 0 0 0 0 0.937255 0 0 0 0 0.341176 0 0 0 0.5 0"/>
<feBlend mode="normal" in2="BackgroundImageFix" result="effect1_dropShadow_140_793"/>
<feBlend mode="normal" in="SourceGraphic" in2="effect1_dropShadow_140_793" result="shape"/>
</filter>
<filter id="filter15_d_140_793" x="39.8799" y="23.8552" width="17.3677" height="16.8472" filterUnits="userSpaceOnUse" color-interpolation-filters="sRGB">
<feFlood flood-opacity="0" result="BackgroundImageFix"/>
<feColorMatrix in="SourceAlpha" type="matrix" values="0 0 0 0 0 0 0 0 0 0 0 0 0 0 0 0 0 0 127 0" result="hardAlpha"/>
<feOffset/>
<feGaussianBlur stdDeviation="3"/>
<feColorMatrix type="matrix" values="0 0 0 0 1 0 0 0 0 0.937255 0 0 0 0 0.341176 0 0 0 0.5 0"/>
<feBlend mode="normal" in2="BackgroundImageFix" result="effect1_dropShadow_140_793"/>
<feBlend mode="normal" in="SourceGraphic" in2="effect1_dropShadow_140_793" result="shape"/>
</filter>
<filter id="filter16_d_140_793" x="39.9268" y="23.9482" width="16.5068" height="15.7241" filterUnits="userSpaceOnUse" color-interpolation-filters="sRGB">
<feFlood flood-opacity="0" result="BackgroundImageFix"/>
<feColorMatrix in="SourceAlpha" type="matrix" values="0 0 0 0 0 0 0 0 0 0 0 0 0 0 0 0 0 0 127 0" result="hardAlpha"/>
<feOffset/>
<feGaussianBlur stdDeviation="3"/>
<feColorMatrix type="matrix" values="0 0 0 0 1 0 0 0 0 0.937255 0 0 0 0 0.341176 0 0 0 0.5 0"/>
<feBlend mode="normal" in2="BackgroundImageFix" result="effect1_dropShadow_140_793"/>
<feBlend mode="normal" in="SourceGraphic" in2="effect1_dropShadow_140_793" result="shape"/>
</filter>
<linearGradient id="paint0_linear_140_793" x1="36.9322" y1="53.2381" x2="46.3128" y2="41.4328" gradientUnits="userSpaceOnUse">
<stop stop-color="#378BDA"/>
<stop offset="1" stop-color="white"/>
</linearGradient>
<linearGradient id="paint1_linear_140_793" x1="36.9322" y1="53.2381" x2="51.0869" y2="32.949" gradientUnits="userSpaceOnUse">
<stop stop-color="#0068AE"/>
<stop offset="1" stop-color="white"/>
</linearGradient>
<linearGradient id="paint2_linear_140_793" x1="49.9322" y1="53.2381" x2="59.3128" y2="41.4328" gradientUnits="userSpaceOnUse">
<stop stop-color="#16BC86"/>
<stop offset="1" stop-color="white"/>
</linearGradient>
<linearGradient id="paint3_linear_140_793" x1="49.9322" y1="53.2381" x2="67.2075" y2="28.3439" gradientUnits="userSpaceOnUse">
<stop stop-color="#16BC86"/>
<stop offset="1" stop-color="white"/>
</linearGradient>
<radialGradient id="paint4_radial_140_793" cx="0" cy="0" r="1" gradientUnits="userSpaceOnUse" gradientTransform="translate(40.4499 23.5672) scale(0.679442)">
<stop stop-color="#FFFF6B"/>
<stop offset="1" stop-color="#FAB93F"/>
</radialGradient>
<radialGradient id="paint5_radial_140_793" cx="0" cy="0" r="1" gradientUnits="userSpaceOnUse" gradientTransform="translate(41.7624 22.7171) scale(0.679442 0.679443)">
<stop stop-color="#FFFF6B"/>
<stop offset="1" stop-color="#FAB93F"/>
</radialGradient>
<radialGradient id="paint6_radial_140_793" cx="0" cy="0" r="1" gradientUnits="userSpaceOnUse" gradientTransform="translate(41.3314 22.1748) scale(2.54093 2.54093)">
<stop stop-color="#FFFF6B"/>
<stop offset="1" stop-color="#FAB93F"/>
</radialGradient>
<radialGradient id="paint7_radial_140_793" cx="0" cy="0" r="1" gradientUnits="userSpaceOnUse" gradientTransform="translate(40.9478 21.7055) scale(2.04996 2.04996)">
<stop stop-color="#FFFF6B"/>
<stop offset="1" stop-color="#FAB93F"/>
</radialGradient>
<linearGradient id="paint8_linear_140_793" x1="23.9322" y1="53.2381" x2="33.3128" y2="41.4328" gradientUnits="userSpaceOnUse">
<stop stop-color="#AD1D76"/>
<stop offset="1" stop-color="white"/>
</linearGradient>
<linearGradient id="paint9_linear_140_793" x1="23.9322" y1="53.2381" x2="36.078" y2="35.335" gradientUnits="userSpaceOnUse">
<stop stop-color="#E12090"/>
<stop offset="1" stop-color="white"/>
</linearGradient>
<radialGradient id="paint10_radial_140_793" cx="0" cy="0" r="1" gradientUnits="userSpaceOnUse" gradientTransform="translate(22.5357 31.7917) scale(0.677115)">
<stop stop-color="#FFFF6B"/>
<stop offset="1" stop-color="#FAB93F"/>
</radialGradient>
<radialGradient id="paint11_radial_140_793" cx="0" cy="0" r="1" gradientUnits="userSpaceOnUse" gradientTransform="translate(23.3243 33.1412) scale(0.677115 0.677117)">
<stop stop-color="#FFFF6B"/>
<stop offset="1" stop-color="#FAB93F"/>
</radialGradient>
<radialGradient id="paint12_radial_140_793" cx="0" cy="0" r="1" gradientUnits="userSpaceOnUse" gradientTransform="translate(24.3527 34.3163) scale(0.677115)">
<stop stop-color="#FFFF6B"/>
<stop offset="1" stop-color="#FAB93F"/>
</radialGradient>
<radialGradient id="paint13_radial_140_793" cx="0" cy="0" r="1" gradientUnits="userSpaceOnUse" gradientTransform="translate(23.8857 32.7358) scale(2.53162 2.53162)">
<stop stop-color="#FFFF6B"/>
<stop offset="1" stop-color="#FAB93F"/>
</radialGradient>
<radialGradient id="paint14_radial_140_793" cx="0" cy="0" r="1" gradientUnits="userSpaceOnUse" gradientTransform="translate(24.3671 32.3727) scale(2.04996)">
<stop stop-color="#FFFF6B"/>
<stop offset="1" stop-color="#FAB93F"/>
</radialGradient>
<radialGradient id="paint15_radial_140_793" cx="0" cy="0" r="1" gradientUnits="userSpaceOnUse" gradientTransform="translate(47.6818 33.6729) scale(0.679442)">
<stop stop-color="#FFFF6B"/>
<stop offset="1" stop-color="#FAB93F"/>
</radialGradient>
<radialGradient id="paint16_radial_140_793" cx="0" cy="0" r="1" gradientUnits="userSpaceOnUse" gradientTransform="translate(48.9938 32.823) scale(0.679442 0.679443)">
<stop stop-color="#FFFF6B"/>
<stop offset="1" stop-color="#FAB93F"/>
</radialGradient>
<radialGradient id="paint17_radial_140_793" cx="0" cy="0" r="1" gradientUnits="userSpaceOnUse" gradientTransform="translate(50.1204 31.7436) scale(0.679445 0.679443)">
<stop stop-color="#FFFF6B"/>
<stop offset="1" stop-color="#FAB93F"/>
</radialGradient>
<radialGradient id="paint18_radial_140_793" cx="0" cy="0" r="1" gradientUnits="userSpaceOnUse" gradientTransform="translate(48.5638 32.28) scale(2.54093 2.54093)">
<stop stop-color="#FFFF6B"/>
<stop offset="1" stop-color="#FAB93F"/>
</radialGradient>
<radialGradient id="paint19_radial_140_793" cx="0" cy="0" r="1" gradientUnits="userSpaceOnUse" gradientTransform="translate(48.1802 31.8108) scale(2.04996 2.04996)">
<stop stop-color="#FFFF6B"/>
<stop offset="1" stop-color="#FAB93F"/>
</radialGradient>
<clipPath id="clip0_140_793">
<rect width="88" height="88" fill="white"/>
</clipPath>
</defs>
</svg>
