<svg width="88" height="88" viewBox="0 0 88 88" fill="none" xmlns="http://www.w3.org/2000/svg">
<g clip-path="url(#clip0_518_2397)">
<mask id="mask0_518_2397" style="mask-type:luminance" maskUnits="userSpaceOnUse" x="0" y="0" width="88" height="88">
<path d="M88 0H0V88H88V0Z" fill="white"/>
</mask>
<g mask="url(#mask0_518_2397)">
<path d="M44.0007 84.8569C66.5655 84.8569 84.8579 66.5645 84.8579 43.9998C84.8579 21.435 66.5655 3.14258 44.0007 3.14258C21.4359 3.14258 3.14355 21.435 3.14355 43.9998C3.14355 66.5645 21.4359 84.8569 44.0007 84.8569Z" stroke="#D5212E" stroke-width="5" stroke-linecap="round" stroke-linejoin="round"/>
<path d="M62.9815 48.3459V48.5552H58.4518L56.8446 46.7902L50.7336 40.0764L51.1843 39.6036H55.0268L62.9815 48.3459ZM54.8532 58.0519H49.5698L41.5707 67H63L54.8532 58.0519ZM25.0185 21L33.1653 29.9481H38.4339L46.433 21H25.0185ZM31.2995 41.365L29.5888 39.4881H25V39.8274L32.8365 48.4325H37.0817L37.4179 48.0716L31.2995 41.365Z" fill="#8D0101"/>
<path d="M63 34.87V48.3287L55.0414 39.5919L50.3912 34.4912L37.4239 48.0546L31.3062 41.3523L29.5947 39.4765L25 34.4263V21H25.0185L33.1693 29.9424L37.5829 34.7834L44.2772 27.7781L50.3136 21.4581L63 34.87ZM58.4681 48.538L56.8601 46.774L50.7461 40.0645L49.5817 41.2837L44.4695 46.6333L37.7012 53.736L32.8403 48.4153L25 39.8156V53.2743L31.4171 60.3193L37.3685 66.8485L37.5348 67L43.8004 60.4456L50.5835 53.3465L54.8529 58.0359L62.9852 66.9784V53.5124L58.4681 48.538Z" fill="#D5212E"/>
</g>
</g>
<defs>
<clipPath id="clip0_518_2397">
<rect width="88" height="88" fill="white"/>
</clipPath>
</defs>
</svg>
