<svg width="88" height="88" viewBox="0 0 88 88" fill="none" xmlns="http://www.w3.org/2000/svg">
<g clip-path="url(#clip0_139_702)">
<path d="M44 84.8571C66.5647 84.8571 84.8571 66.5647 84.8571 44C84.8571 21.4352 66.5647 3.14282 44 3.14282C21.4352 3.14282 3.14282 21.4352 3.14282 44C3.14282 66.5647 21.4352 84.8571 44 84.8571Z" stroke="#C62121" stroke-width="5" stroke-linecap="round" stroke-linejoin="round"/>
<path d="M65 23V47H53V34.9974H41V23H65Z" fill="#C62121"/>
<path d="M53 23H41V35H53V23Z" fill="url(#paint0_linear_139_702)"/>
<path d="M65 35H53V47H65V35Z" fill="url(#paint1_linear_139_702)"/>
<path d="M65 52.8834V65H23V23H35.1166V52.8834H65Z" fill="#C62121"/>
</g>
<defs>
<linearGradient id="paint0_linear_139_702" x1="41" y1="29" x2="53" y2="29" gradientUnits="userSpaceOnUse">
<stop stop-color="#680101"/>
<stop offset="0.72" stop-color="#C62121"/>
</linearGradient>
<linearGradient id="paint1_linear_139_702" x1="59" y1="47" x2="59" y2="35" gradientUnits="userSpaceOnUse">
<stop stop-color="#680101"/>
<stop offset="0.72" stop-color="#C62121"/>
</linearGradient>
<clipPath id="clip0_139_702">
<rect width="88" height="88" fill="white"/>
</clipPath>
</defs>
</svg>
