<svg width="88" height="88" viewBox="0 0 88 88" fill="none" xmlns="http://www.w3.org/2000/svg">
<g clip-path="url(#clip0_144_850)">
<path fill-rule="evenodd" clip-rule="evenodd" d="M49.351 47.1511C50.1463 45.7656 50.3214 44.1125 50.3089 42.5145C50.2964 40.9189 50.1138 39.3183 50.2689 37.7278C47.4577 38.0029 44.509 37.2276 41.8579 38.2029C40.2372 38.7981 38.8516 40.0661 38.2188 41.6742C37.6911 43.0121 37.6886 44.4927 37.6961 45.9307C37.7186 50.965 37.7211 55.9968 37.7211 61.0311V64.9975H23V44.1451C23 32.4934 32.4714 23 44.1263 23H55.1684V27.9143H44.1263C35.1801 27.9143 27.892 35.2019 27.892 44.1476V60.0857H32.8066V44.1476C32.8066 37.9103 37.8887 32.8285 44.1263 32.8285H55.1734V43.875C55.1734 44.8328 55.0509 45.7906 54.8108 46.7185C54.5757 47.6213 54.2255 48.4941 53.7753 49.3119C53.3301 50.1172 52.7874 50.87 52.1622 51.5452C51.5369 52.2204 50.8316 52.8181 50.0638 53.3258C49.6786 53.5809 49.276 53.811 48.8608 54.0161C48.7007 54.0961 48.5381 54.1711 48.3706 54.2437C48.198 54.3187 48.0329 54.4112 47.8504 54.4637C47.6678 54.5163 47.4627 54.5213 47.2726 54.5363C46.6349 54.5888 45.9921 54.5763 45.3518 54.5788C44.6915 54.5788 44.0313 54.5713 43.3735 54.5638C43.2534 54.5638 43.1359 54.5588 43.0183 54.5588C42.8933 54.5588 42.7657 54.5563 42.6407 54.5538C42.6407 53.1283 42.6382 51.7028 42.6357 50.2772C43.9362 50.4073 45.2718 50.2322 46.4673 49.7045C47.6603 49.1768 48.7032 48.289 49.3535 47.1561L49.351 47.1511Z" fill="url(#paint0_linear_144_850)"/>
<path fill-rule="evenodd" clip-rule="evenodd" d="M65.0001 23V43.875C65.0001 54.2687 57.462 62.9418 47.5478 64.6849C46.3498 64.895 45.1118 65 43.8513 65H42.6333V59.6981H43.8388C44.4966 59.6981 45.1519 59.6981 45.8071 59.7006C46.4449 59.7006 47.1077 59.7556 47.7329 59.6181C47.7704 59.6106 47.808 59.6006 47.848 59.5906C48.2957 59.478 48.7358 59.343 49.171 59.1929C50.0314 58.8928 50.8667 58.5202 51.6646 58.0825C52.4549 57.6474 53.2102 57.1447 53.9155 56.5845C54.6208 56.0268 55.2786 55.4116 55.8813 54.7438C56.4866 54.0761 57.0343 53.3608 57.5195 52.6031C58.0097 51.8403 58.4349 51.0375 58.79 50.2047C59.1502 49.3619 59.4378 48.4866 59.6479 47.5913C59.8655 46.676 59.998 45.7431 60.0531 44.8053C60.0706 44.4927 60.0806 44.1826 60.0806 43.87V28.1593V23H64.9926H65.0001Z" fill="url(#paint1_linear_144_850)"/>
</g>
<g clip-path="url(#clip1_144_850)">
<path d="M44.0002 84.8571C66.565 84.8571 84.8574 66.5647 84.8574 44C84.8574 21.4352 66.565 3.14282 44.0002 3.14282C21.4354 3.14282 3.14307 21.4352 3.14307 44C3.14307 66.5647 21.4354 84.8571 44.0002 84.8571Z" stroke="#54B5A5" stroke-width="5" stroke-linecap="round" stroke-linejoin="round"/>
</g>
<defs>
<linearGradient id="paint0_linear_144_850" x1="23" y1="44" x2="55.1734" y2="44" gradientUnits="userSpaceOnUse">
<stop stop-color="#63C4B0"/>
<stop offset="0.3" stop-color="#4BAD9F"/>
<stop offset="0.54" stop-color="#359890"/>
<stop offset="0.97" stop-color="#63C4B0"/>
</linearGradient>
<linearGradient id="paint1_linear_144_850" x1="42.6358" y1="23" x2="65.0001" y2="23" gradientUnits="userSpaceOnUse">
<stop stop-color="#63C4B0"/>
<stop offset="0.3" stop-color="#4BAD9F"/>
<stop offset="0.54" stop-color="#359890"/>
<stop offset="0.97" stop-color="#63C4B0"/>
</linearGradient>
<clipPath id="clip0_144_850">
<rect width="42" height="42" fill="white" transform="translate(23 23)"/>
</clipPath>
<clipPath id="clip1_144_850">
<rect width="88" height="88" fill="white"/>
</clipPath>
</defs>
</svg>
