<svg width="88" height="88" viewBox="0 0 88 88" fill="none" xmlns="http://www.w3.org/2000/svg">
<path d="M44.0002 84.8574C66.565 84.8574 84.8574 66.565 84.8574 44.0002C84.8574 21.4354 66.565 3.14307 44.0002 3.14307C21.4354 3.14307 3.14307 21.4354 3.14307 44.0002C3.14307 66.565 21.4354 84.8574 44.0002 84.8574Z" stroke="#00A18B" stroke-width="5" stroke-linecap="round" stroke-linejoin="round"/>
<path d="M30.0852 37V32.0834H35V29H27V37H30.0852Z" fill="#1D617A"/>
<path d="M32 49V52.4688H37.5332V58H41V49H32Z" fill="#00A18B"/>
<path d="M56 38.9166H51.0852V34H48V42H56V38.9166Z" fill="#00A18B"/>
<path d="M43 29V32.2817H57.891V48H61V29H43Z" fill="#1D617A"/>
<path d="M62.7994 39V42.2303H65.7702V49.3164H47.3197V67.7697H40.2298V64.8033H37V71H50.5496V52.5467H69V39H62.7994Z" fill="#00A18B"/>
<path d="M57.9166 55V59.9166H53V63H61V55H57.9166Z" fill="#1D617A"/>
<path d="M25.1909 49.7697H22.2298V42.6836H40.6803V24.2303H47.7702V27.1918H51V21H37.4504V39.4533H19V53H25.1909V49.7697Z" fill="#00A18B"/>
<path d="M46 63V59.7175H30.2825V44H27V63H46Z" fill="#1D617A"/>
</svg>
