<svg width="24" height="440" viewBox="0 0 24 440" fill="none" xmlns="http://www.w3.org/2000/svg">
<path d="M13.0607 0.93934C12.4749 0.353553 11.5251 0.353553 10.9393 0.93934L1.3934 10.4853C0.807611 11.0711 0.807611 12.0208 1.3934 12.6066C1.97918 13.1924 2.92893 13.1924 3.51472 12.6066L12 4.12132L20.4853 12.6066C21.0711 13.1924 22.0208 13.1924 22.6066 12.6066C23.1924 12.0208 23.1924 11.0711 22.6066 10.4853L13.0607 0.93934ZM10.9393 439.061C11.5251 439.646 12.4749 439.646 13.0606 439.061L22.6066 429.515C23.1924 428.929 23.1924 427.979 22.6066 427.393C22.0208 426.808 21.071 426.808 20.4853 427.393L12 435.879L3.5147 427.393C2.92891 426.808 1.97917 426.808 1.39338 427.393C0.807593 427.979 0.807593 428.929 1.39338 429.515L10.9393 439.061ZM10.5 2L10.5 438L13.5 438L13.5 2L10.5 2Z" fill="black"/>
</svg>
