<svg width="761" height="476" viewBox="0 0 761 476" fill="none" xmlns="http://www.w3.org/2000/svg">
<g filter="url(#filter0_bd_394_393)">
<rect x="77" y="78" width="289" height="312" rx="8" fill="#01F299" fill-opacity="0.05" shape-rendering="crispEdges"/>
<rect x="77.5" y="78.5" width="288" height="311" rx="7.5" stroke="url(#paint0_linear_394_393)" shape-rendering="crispEdges"/>
</g>
<g filter="url(#filter1_bd_394_393)">
<rect x="675" y="390" width="289" height="312" rx="8" transform="rotate(180 675 390)" fill="#01F299" fill-opacity="0.05" shape-rendering="crispEdges"/>
<rect x="674.5" y="389.5" width="288" height="311" rx="7.5" transform="rotate(180 674.5 389.5)" stroke="url(#paint1_linear_394_393)" shape-rendering="crispEdges"/>
</g>
<path d="M736 414L716 402.453V425.547L736 414ZM50 416H718V412H50V416Z" fill="url(#paint2_linear_394_393)"/>
<path d="M50 0L38.453 20L61.547 20L50 0ZM52 414L52 18L48 18L48 414L52 414Z" fill="url(#paint3_linear_394_393)"/>
<line x1="50.0174" y1="410.749" x2="117.562" y2="351.269" stroke="#01F299"  stroke-width="6"/>
<line x1="116.49"  y1="351.044" x2="205.182" y2="335.752" stroke="#048C64" stroke-opacity="0.3" stroke-width="6"/>
<line x1="204.962" y1="335.798" x2="271.019" y2="274.671" stroke="#048C64" stroke-opacity="0.3" stroke-width="6"/>
<line x1="272.479" y1="274.046" x2="361.109" y2="258.405" stroke="#048C64" stroke-opacity="0.3" stroke-width="6"/>
<line x1="359.203" y1="259.916" x2="391.722" y2="175.996" stroke="#048C64" stroke-opacity="0.3" stroke-width="6"/>
<line x1="390.666" y1="178.659" x2="480.106" y2="168.633" stroke="#048C64" stroke-opacity="0.3" stroke-width="6"/>
<line x1="478.715" y1="169.289" x2="560.038" y2="130.733" stroke="#048C64" stroke-opacity="0.3" stroke-width="6"/>
<line x1="550.569" y1="131.672" x2="639.633" y2="118.731" stroke="#048C64" stroke-opacity="0.3" stroke-width="6"/>
<circle cx="50.5"  cy="410.5" r="6" fill="#048C64" stroke="white" stroke-width="3"/>
<circle cx="117.5" cy="352.5" r="6" fill="#048C64" stroke="white" stroke-width="3"/>
<circle cx="204.5" cy="335.5" r="6" fill="#048C64" stroke="white" stroke-width="3"/>
<circle cx="271.5" cy="275.5" r="6" fill="#048C64" stroke="white" stroke-width="3"/>
<circle cx="358.5" cy="258.5" r="6" fill="#048C64" stroke="white" stroke-width="3"/>
<circle cx="391.5" cy="179.5" r="6" fill="#048C64" stroke="white" stroke-width="3"/>
<circle cx="480.5" cy="169.5" r="6" fill="#048C64" stroke="white" stroke-width="3"/>
<circle cx="556.5" cy="129.5" r="6" fill="#048C64" stroke="white" stroke-width="3"/>
<circle cx="639.5" cy="117.5" r="6" fill="#048C64" stroke="white" stroke-width="3"/>
<path d="M109.604 456.142C109.604 456.674 109.669 457.159 109.8 457.598C109.931 458.027 110.117 458.396 110.36 458.704C110.612 459.003 110.915 459.236 111.27 459.404C111.625 459.572 112.026 459.656 112.474 459.656C112.913 459.656 113.309 459.572 113.664 459.404C114.019 459.236 114.317 459.003 114.56 458.704C114.812 458.396 115.003 458.027 115.134 457.598C115.265 457.159 115.33 456.674 115.33 456.142C115.33 455.61 115.265 455.129 115.134 454.7C115.003 454.261 114.812 453.893 114.56 453.594C114.317 453.286 114.019 453.048 113.664 452.88C113.309 452.712 112.913 452.628 112.474 452.628C112.026 452.628 111.625 452.712 111.27 452.88C110.915 453.048 110.612 453.286 110.36 453.594C110.117 453.902 109.931 454.271 109.8 454.7C109.669 455.129 109.604 455.61 109.604 456.142ZM117.178 456.142C117.178 456.842 117.089 457.472 116.912 458.032C116.735 458.592 116.487 459.082 116.17 459.502C115.853 459.913 115.479 460.249 115.05 460.51C114.63 460.771 114.168 460.958 113.664 461.07C113.692 461.266 113.79 461.434 113.958 461.574C114.126 461.714 114.336 461.831 114.588 461.924C114.849 462.017 115.143 462.092 115.47 462.148C115.806 462.213 116.156 462.26 116.52 462.288L116.128 463.618C114.924 463.525 113.967 463.291 113.258 462.918C112.549 462.554 112.096 461.971 111.9 461.168C111.321 461.112 110.78 460.963 110.276 460.72C109.781 460.477 109.347 460.146 108.974 459.726C108.601 459.306 108.307 458.797 108.092 458.2C107.877 457.603 107.77 456.917 107.77 456.142C107.77 455.311 107.896 454.583 108.148 453.958C108.4 453.323 108.741 452.791 109.17 452.362C109.609 451.933 110.113 451.611 110.682 451.396C111.251 451.181 111.853 451.074 112.488 451.074C113.123 451.074 113.725 451.181 114.294 451.396C114.863 451.611 115.358 451.933 115.778 452.362C116.207 452.791 116.548 453.323 116.8 453.958C117.052 454.583 117.178 455.311 117.178 456.142ZM119.911 453.314C120.453 453.099 120.994 452.824 121.535 452.488C122.086 452.152 122.571 451.755 122.991 451.298H124.181V461H122.487V453.566C122.235 453.762 121.918 453.953 121.535 454.14C121.153 454.327 120.784 454.481 120.429 454.602L119.911 453.314Z" fill="#F4F4F4"/>
<path d="M196.604 456.142C196.604 456.674 196.669 457.159 196.8 457.598C196.931 458.027 197.117 458.396 197.36 458.704C197.612 459.003 197.915 459.236 198.27 459.404C198.625 459.572 199.026 459.656 199.474 459.656C199.913 459.656 200.309 459.572 200.664 459.404C201.019 459.236 201.317 459.003 201.56 458.704C201.812 458.396 202.003 458.027 202.134 457.598C202.265 457.159 202.33 456.674 202.33 456.142C202.33 455.61 202.265 455.129 202.134 454.7C202.003 454.261 201.812 453.893 201.56 453.594C201.317 453.286 201.019 453.048 200.664 452.88C200.309 452.712 199.913 452.628 199.474 452.628C199.026 452.628 198.625 452.712 198.27 452.88C197.915 453.048 197.612 453.286 197.36 453.594C197.117 453.902 196.931 454.271 196.8 454.7C196.669 455.129 196.604 455.61 196.604 456.142ZM204.178 456.142C204.178 456.842 204.089 457.472 203.912 458.032C203.735 458.592 203.487 459.082 203.17 459.502C202.853 459.913 202.479 460.249 202.05 460.51C201.63 460.771 201.168 460.958 200.664 461.07C200.692 461.266 200.79 461.434 200.958 461.574C201.126 461.714 201.336 461.831 201.588 461.924C201.849 462.017 202.143 462.092 202.47 462.148C202.806 462.213 203.156 462.26 203.52 462.288L203.128 463.618C201.924 463.525 200.967 463.291 200.258 462.918C199.549 462.554 199.096 461.971 198.9 461.168C198.321 461.112 197.78 460.963 197.276 460.72C196.781 460.477 196.347 460.146 195.974 459.726C195.601 459.306 195.307 458.797 195.092 458.2C194.877 457.603 194.77 456.917 194.77 456.142C194.77 455.311 194.896 454.583 195.148 453.958C195.4 453.323 195.741 452.791 196.17 452.362C196.609 451.933 197.113 451.611 197.682 451.396C198.251 451.181 198.853 451.074 199.488 451.074C200.123 451.074 200.725 451.181 201.294 451.396C201.863 451.611 202.358 451.933 202.778 452.362C203.207 452.791 203.548 453.323 203.8 453.958C204.052 454.583 204.178 455.311 204.178 456.142ZM212.385 453.818C212.385 454.154 212.315 454.485 212.175 454.812C212.035 455.129 211.853 455.442 211.629 455.75C211.415 456.049 211.167 456.343 210.887 456.632C210.607 456.912 210.327 457.187 210.047 457.458C209.898 457.598 209.73 457.766 209.543 457.962C209.357 458.158 209.179 458.354 209.011 458.55C208.843 458.746 208.699 458.937 208.577 459.124C208.456 459.301 208.391 459.451 208.381 459.572H212.693V461H206.519C206.51 460.925 206.505 460.837 206.505 460.734C206.505 460.622 206.505 460.538 206.505 460.482C206.505 460.034 206.575 459.623 206.715 459.25C206.865 458.867 207.056 458.513 207.289 458.186C207.523 457.859 207.784 457.551 208.073 457.262C208.363 456.973 208.652 456.688 208.941 456.408C209.165 456.193 209.38 455.983 209.585 455.778C209.791 455.573 209.968 455.372 210.117 455.176C210.276 454.971 210.402 454.765 210.495 454.56C210.589 454.345 210.635 454.126 210.635 453.902C210.635 453.417 210.495 453.071 210.215 452.866C209.935 452.661 209.595 452.558 209.193 452.558C208.932 452.558 208.689 452.595 208.465 452.67C208.241 452.745 208.041 452.833 207.863 452.936C207.695 453.039 207.546 453.146 207.415 453.258C207.285 453.361 207.187 453.445 207.121 453.51L206.281 452.32C206.673 451.947 207.131 451.648 207.653 451.424C208.185 451.191 208.755 451.074 209.361 451.074C210.397 451.074 211.158 451.321 211.643 451.816C212.138 452.301 212.385 452.969 212.385 453.818Z" fill="#F4F4F4"/>
<path d="M263.8 456.142C263.8 456.674 263.865 457.159 263.996 457.598C264.127 458.027 264.313 458.396 264.556 458.704C264.808 459.003 265.111 459.236 265.466 459.404C265.821 459.572 266.222 459.656 266.67 459.656C267.109 459.656 267.505 459.572 267.86 459.404C268.215 459.236 268.513 459.003 268.756 458.704C269.008 458.396 269.199 458.027 269.33 457.598C269.461 457.159 269.526 456.674 269.526 456.142C269.526 455.61 269.461 455.129 269.33 454.7C269.199 454.261 269.008 453.893 268.756 453.594C268.513 453.286 268.215 453.048 267.86 452.88C267.505 452.712 267.109 452.628 266.67 452.628C266.222 452.628 265.821 452.712 265.466 452.88C265.111 453.048 264.808 453.286 264.556 453.594C264.313 453.902 264.127 454.271 263.996 454.7C263.865 455.129 263.8 455.61 263.8 456.142ZM271.374 456.142C271.374 456.842 271.285 457.472 271.108 458.032C270.931 458.592 270.683 459.082 270.366 459.502C270.049 459.913 269.675 460.249 269.246 460.51C268.826 460.771 268.364 460.958 267.86 461.07C267.888 461.266 267.986 461.434 268.154 461.574C268.322 461.714 268.532 461.831 268.784 461.924C269.045 462.017 269.339 462.092 269.666 462.148C270.002 462.213 270.352 462.26 270.716 462.288L270.324 463.618C269.12 463.525 268.163 463.291 267.454 462.918C266.745 462.554 266.292 461.971 266.096 461.168C265.517 461.112 264.976 460.963 264.472 460.72C263.977 460.477 263.543 460.146 263.17 459.726C262.797 459.306 262.503 458.797 262.288 458.2C262.073 457.603 261.966 456.917 261.966 456.142C261.966 455.311 262.092 454.583 262.344 453.958C262.596 453.323 262.937 452.791 263.366 452.362C263.805 451.933 264.309 451.611 264.878 451.396C265.447 451.181 266.049 451.074 266.684 451.074C267.319 451.074 267.921 451.181 268.49 451.396C269.059 451.611 269.554 451.933 269.974 452.362C270.403 452.791 270.744 453.323 270.996 453.958C271.248 454.583 271.374 455.311 271.374 456.142ZM276.151 461.21C275.899 461.21 275.638 461.191 275.367 461.154C275.106 461.126 274.854 461.084 274.611 461.028C274.378 460.981 274.163 460.93 273.967 460.874C273.771 460.809 273.622 460.748 273.519 460.692L273.855 459.25C274.051 459.343 274.336 459.451 274.709 459.572C275.082 459.684 275.544 459.74 276.095 459.74C276.832 459.74 277.364 459.6 277.691 459.32C278.018 459.031 278.181 458.648 278.181 458.172C278.181 457.864 278.116 457.607 277.985 457.402C277.864 457.197 277.691 457.033 277.467 456.912C277.252 456.781 277 456.693 276.711 456.646C276.431 456.59 276.132 456.562 275.815 456.562H275.241V455.19H275.941C276.156 455.19 276.37 455.171 276.585 455.134C276.809 455.087 277.01 455.013 277.187 454.91C277.364 454.798 277.509 454.653 277.621 454.476C277.733 454.299 277.789 454.07 277.789 453.79C277.789 453.566 277.747 453.375 277.663 453.216C277.579 453.057 277.467 452.927 277.327 452.824C277.196 452.721 277.042 452.647 276.865 452.6C276.688 452.553 276.501 452.53 276.305 452.53C275.885 452.53 275.512 452.595 275.185 452.726C274.858 452.847 274.569 452.987 274.317 453.146L273.701 451.886C273.832 451.802 273.99 451.713 274.177 451.62C274.364 451.527 274.569 451.438 274.793 451.354C275.026 451.27 275.274 451.205 275.535 451.158C275.796 451.102 276.072 451.074 276.361 451.074C276.902 451.074 277.369 451.139 277.761 451.27C278.153 451.401 278.475 451.587 278.727 451.83C278.988 452.063 279.18 452.343 279.301 452.67C279.432 452.987 279.497 453.337 279.497 453.72C279.497 454.168 279.371 454.569 279.119 454.924C278.876 455.279 278.559 455.549 278.167 455.736C278.671 455.913 279.086 456.207 279.413 456.618C279.749 457.029 279.917 457.556 279.917 458.2C279.917 458.629 279.842 459.031 279.693 459.404C279.544 459.768 279.315 460.085 279.007 460.356C278.699 460.617 278.307 460.827 277.831 460.986C277.364 461.135 276.804 461.21 276.151 461.21Z" fill="#F4F4F4"/>
<path d="M548.8 456.142C548.8 456.674 548.865 457.159 548.996 457.598C549.127 458.027 549.313 458.396 549.556 458.704C549.808 459.003 550.111 459.236 550.466 459.404C550.821 459.572 551.222 459.656 551.67 459.656C552.109 459.656 552.505 459.572 552.86 459.404C553.215 459.236 553.513 459.003 553.756 458.704C554.008 458.396 554.199 458.027 554.33 457.598C554.461 457.159 554.526 456.674 554.526 456.142C554.526 455.61 554.461 455.129 554.33 454.7C554.199 454.261 554.008 453.893 553.756 453.594C553.513 453.286 553.215 453.048 552.86 452.88C552.505 452.712 552.109 452.628 551.67 452.628C551.222 452.628 550.821 452.712 550.466 452.88C550.111 453.048 549.808 453.286 549.556 453.594C549.313 453.902 549.127 454.271 548.996 454.7C548.865 455.129 548.8 455.61 548.8 456.142ZM556.374 456.142C556.374 456.842 556.285 457.472 556.108 458.032C555.931 458.592 555.683 459.082 555.366 459.502C555.049 459.913 554.675 460.249 554.246 460.51C553.826 460.771 553.364 460.958 552.86 461.07C552.888 461.266 552.986 461.434 553.154 461.574C553.322 461.714 553.532 461.831 553.784 461.924C554.045 462.017 554.339 462.092 554.666 462.148C555.002 462.213 555.352 462.26 555.716 462.288L555.324 463.618C554.12 463.525 553.163 463.291 552.454 462.918C551.745 462.554 551.292 461.971 551.096 461.168C550.517 461.112 549.976 460.963 549.472 460.72C548.977 460.477 548.543 460.146 548.17 459.726C547.797 459.306 547.503 458.797 547.288 458.2C547.073 457.603 546.966 456.917 546.966 456.142C546.966 455.311 547.092 454.583 547.344 453.958C547.596 453.323 547.937 452.791 548.366 452.362C548.805 451.933 549.309 451.611 549.878 451.396C550.447 451.181 551.049 451.074 551.684 451.074C552.319 451.074 552.921 451.181 553.49 451.396C554.059 451.611 554.554 451.933 554.974 452.362C555.403 452.791 555.744 453.323 555.996 453.958C556.248 454.583 556.374 455.311 556.374 456.142ZM561.151 461.21C560.899 461.21 560.638 461.191 560.367 461.154C560.106 461.126 559.854 461.084 559.611 461.028C559.378 460.981 559.163 460.93 558.967 460.874C558.771 460.809 558.622 460.748 558.519 460.692L558.855 459.25C559.051 459.343 559.336 459.451 559.709 459.572C560.082 459.684 560.544 459.74 561.095 459.74C561.832 459.74 562.364 459.6 562.691 459.32C563.018 459.031 563.181 458.648 563.181 458.172C563.181 457.864 563.116 457.607 562.985 457.402C562.864 457.197 562.691 457.033 562.467 456.912C562.252 456.781 562 456.693 561.711 456.646C561.431 456.59 561.132 456.562 560.815 456.562H560.241V455.19H560.941C561.156 455.19 561.37 455.171 561.585 455.134C561.809 455.087 562.01 455.013 562.187 454.91C562.364 454.798 562.509 454.653 562.621 454.476C562.733 454.299 562.789 454.07 562.789 453.79C562.789 453.566 562.747 453.375 562.663 453.216C562.579 453.057 562.467 452.927 562.327 452.824C562.196 452.721 562.042 452.647 561.865 452.6C561.688 452.553 561.501 452.53 561.305 452.53C560.885 452.53 560.512 452.595 560.185 452.726C559.858 452.847 559.569 452.987 559.317 453.146L558.701 451.886C558.832 451.802 558.99 451.713 559.177 451.62C559.364 451.527 559.569 451.438 559.793 451.354C560.026 451.27 560.274 451.205 560.535 451.158C560.796 451.102 561.072 451.074 561.361 451.074C561.902 451.074 562.369 451.139 562.761 451.27C563.153 451.401 563.475 451.587 563.727 451.83C563.988 452.063 564.18 452.343 564.301 452.67C564.432 452.987 564.497 453.337 564.497 453.72C564.497 454.168 564.371 454.569 564.119 454.924C563.876 455.279 563.559 455.549 563.167 455.736C563.671 455.913 564.086 456.207 564.413 456.618C564.749 457.029 564.917 457.556 564.917 458.2C564.917 458.629 564.842 459.031 564.693 459.404C564.544 459.768 564.315 460.085 564.007 460.356C563.699 460.617 563.307 460.827 562.831 460.986C562.364 461.135 561.804 461.21 561.151 461.21Z" fill="#F4F4F4"/>
<path d="M348.77 453.818C348.77 454.154 348.7 454.485 348.56 454.812C348.42 455.129 348.238 455.442 348.014 455.75C347.799 456.049 347.552 456.343 347.272 456.632C346.992 456.912 346.712 457.187 346.432 457.458C346.283 457.598 346.115 457.766 345.928 457.962C345.741 458.158 345.564 458.354 345.396 458.55C345.228 458.746 345.083 458.937 344.962 459.124C344.841 459.301 344.775 459.451 344.766 459.572H349.078V461H342.904C342.895 460.925 342.89 460.837 342.89 460.734C342.89 460.622 342.89 460.538 342.89 460.482C342.89 460.034 342.96 459.623 343.1 459.25C343.249 458.867 343.441 458.513 343.674 458.186C343.907 457.859 344.169 457.551 344.458 457.262C344.747 456.973 345.037 456.688 345.326 456.408C345.55 456.193 345.765 455.983 345.97 455.778C346.175 455.573 346.353 455.372 346.502 455.176C346.661 454.971 346.787 454.765 346.88 454.56C346.973 454.345 347.02 454.126 347.02 453.902C347.02 453.417 346.88 453.071 346.6 452.866C346.32 452.661 345.979 452.558 345.578 452.558C345.317 452.558 345.074 452.595 344.85 452.67C344.626 452.745 344.425 452.833 344.248 452.936C344.08 453.039 343.931 453.146 343.8 453.258C343.669 453.361 343.571 453.445 343.506 453.51L342.666 452.32C343.058 451.947 343.515 451.648 344.038 451.424C344.57 451.191 345.139 451.074 345.746 451.074C346.782 451.074 347.543 451.321 348.028 451.816C348.523 452.301 348.77 452.969 348.77 453.818ZM358.043 456.142C358.043 457.775 357.744 459.031 357.147 459.908C356.55 460.776 355.724 461.21 354.669 461.21C353.614 461.21 352.788 460.776 352.191 459.908C351.594 459.031 351.295 457.775 351.295 456.142C351.295 455.33 351.37 454.611 351.519 453.986C351.678 453.351 351.902 452.819 352.191 452.39C352.49 451.961 352.844 451.634 353.255 451.41C353.675 451.186 354.146 451.074 354.669 451.074C355.724 451.074 356.55 451.513 357.147 452.39C357.744 453.258 358.043 454.509 358.043 456.142ZM356.293 456.142C356.293 455.638 356.265 455.167 356.209 454.728C356.153 454.289 356.06 453.911 355.929 453.594C355.808 453.267 355.644 453.011 355.439 452.824C355.234 452.637 354.977 452.544 354.669 452.544C354.361 452.544 354.1 452.637 353.885 452.824C353.68 453.011 353.512 453.267 353.381 453.594C353.26 453.911 353.171 454.289 353.115 454.728C353.068 455.167 353.045 455.638 353.045 456.142C353.045 456.646 353.068 457.117 353.115 457.556C353.171 457.995 353.26 458.377 353.381 458.704C353.512 459.021 353.68 459.273 353.885 459.46C354.1 459.647 354.361 459.74 354.669 459.74C354.977 459.74 355.234 459.647 355.439 459.46C355.644 459.273 355.808 459.021 355.929 458.704C356.06 458.377 356.153 457.995 356.209 457.556C356.265 457.117 356.293 456.646 356.293 456.142ZM366.084 453.818C366.084 454.154 366.014 454.485 365.874 454.812C365.734 455.129 365.552 455.442 365.328 455.75C365.113 456.049 364.866 456.343 364.586 456.632C364.306 456.912 364.026 457.187 363.746 457.458C363.597 457.598 363.429 457.766 363.242 457.962C363.055 458.158 362.878 458.354 362.71 458.55C362.542 458.746 362.397 458.937 362.276 459.124C362.155 459.301 362.089 459.451 362.08 459.572H366.392V461H360.218C360.209 460.925 360.204 460.837 360.204 460.734C360.204 460.622 360.204 460.538 360.204 460.482C360.204 460.034 360.274 459.623 360.414 459.25C360.563 458.867 360.755 458.513 360.988 458.186C361.221 457.859 361.483 457.551 361.772 457.262C362.061 456.973 362.351 456.688 362.64 456.408C362.864 456.193 363.079 455.983 363.284 455.778C363.489 455.573 363.667 455.372 363.816 455.176C363.975 454.971 364.101 454.765 364.194 454.56C364.287 454.345 364.334 454.126 364.334 453.902C364.334 453.417 364.194 453.071 363.914 452.866C363.634 452.661 363.293 452.558 362.892 452.558C362.631 452.558 362.388 452.595 362.164 452.67C361.94 452.745 361.739 452.833 361.562 452.936C361.394 453.039 361.245 453.146 361.114 453.258C360.983 453.361 360.885 453.445 360.82 453.51L359.98 452.32C360.372 451.947 360.829 451.648 361.352 451.424C361.884 451.191 362.453 451.074 363.06 451.074C364.096 451.074 364.857 451.321 365.342 451.816C365.837 452.301 366.084 452.969 366.084 453.818ZM371.311 461.21C371.059 461.21 370.798 461.191 370.527 461.154C370.266 461.126 370.014 461.084 369.771 461.028C369.538 460.981 369.323 460.93 369.127 460.874C368.931 460.809 368.782 460.748 368.679 460.692L369.015 459.25C369.211 459.343 369.496 459.451 369.869 459.572C370.242 459.684 370.704 459.74 371.255 459.74C371.992 459.74 372.524 459.6 372.851 459.32C373.178 459.031 373.341 458.648 373.341 458.172C373.341 457.864 373.276 457.607 373.145 457.402C373.024 457.197 372.851 457.033 372.627 456.912C372.412 456.781 372.16 456.693 371.871 456.646C371.591 456.59 371.292 456.562 370.975 456.562H370.401V455.19H371.101C371.316 455.19 371.53 455.171 371.745 455.134C371.969 455.087 372.17 455.013 372.347 454.91C372.524 454.798 372.669 454.653 372.781 454.476C372.893 454.299 372.949 454.07 372.949 453.79C372.949 453.566 372.907 453.375 372.823 453.216C372.739 453.057 372.627 452.927 372.487 452.824C372.356 452.721 372.202 452.647 372.025 452.6C371.848 452.553 371.661 452.53 371.465 452.53C371.045 452.53 370.672 452.595 370.345 452.726C370.018 452.847 369.729 452.987 369.477 453.146L368.861 451.886C368.992 451.802 369.15 451.713 369.337 451.62C369.524 451.527 369.729 451.438 369.953 451.354C370.186 451.27 370.434 451.205 370.695 451.158C370.956 451.102 371.232 451.074 371.521 451.074C372.062 451.074 372.529 451.139 372.921 451.27C373.313 451.401 373.635 451.587 373.887 451.83C374.148 452.063 374.34 452.343 374.461 452.67C374.592 452.987 374.657 453.337 374.657 453.72C374.657 454.168 374.531 454.569 374.279 454.924C374.036 455.279 373.719 455.549 373.327 455.736C373.831 455.913 374.246 456.207 374.573 456.618C374.909 457.029 375.077 457.556 375.077 458.2C375.077 458.629 375.002 459.031 374.853 459.404C374.704 459.768 374.475 460.085 374.167 460.356C373.859 460.617 373.467 460.827 372.991 460.986C372.524 461.135 371.964 461.21 371.311 461.21Z" fill="#F4F4F4"/>
<path d="M431.8 456.142C431.8 456.674 431.865 457.159 431.996 457.598C432.127 458.027 432.313 458.396 432.556 458.704C432.808 459.003 433.111 459.236 433.466 459.404C433.821 459.572 434.222 459.656 434.67 459.656C435.109 459.656 435.505 459.572 435.86 459.404C436.215 459.236 436.513 459.003 436.756 458.704C437.008 458.396 437.199 458.027 437.33 457.598C437.461 457.159 437.526 456.674 437.526 456.142C437.526 455.61 437.461 455.129 437.33 454.7C437.199 454.261 437.008 453.893 436.756 453.594C436.513 453.286 436.215 453.048 435.86 452.88C435.505 452.712 435.109 452.628 434.67 452.628C434.222 452.628 433.821 452.712 433.466 452.88C433.111 453.048 432.808 453.286 432.556 453.594C432.313 453.902 432.127 454.271 431.996 454.7C431.865 455.129 431.8 455.61 431.8 456.142ZM439.374 456.142C439.374 456.842 439.285 457.472 439.108 458.032C438.931 458.592 438.683 459.082 438.366 459.502C438.049 459.913 437.675 460.249 437.246 460.51C436.826 460.771 436.364 460.958 435.86 461.07C435.888 461.266 435.986 461.434 436.154 461.574C436.322 461.714 436.532 461.831 436.784 461.924C437.045 462.017 437.339 462.092 437.666 462.148C438.002 462.213 438.352 462.26 438.716 462.288L438.324 463.618C437.12 463.525 436.163 463.291 435.454 462.918C434.745 462.554 434.292 461.971 434.096 461.168C433.517 461.112 432.976 460.963 432.472 460.72C431.977 460.477 431.543 460.146 431.17 459.726C430.797 459.306 430.503 458.797 430.288 458.2C430.073 457.603 429.966 456.917 429.966 456.142C429.966 455.311 430.092 454.583 430.344 453.958C430.596 453.323 430.937 452.791 431.366 452.362C431.805 451.933 432.309 451.611 432.878 451.396C433.447 451.181 434.049 451.074 434.684 451.074C435.319 451.074 435.921 451.181 436.49 451.396C437.059 451.611 437.554 451.933 437.974 452.362C438.403 452.791 438.744 453.323 438.996 453.958C439.248 454.583 439.374 455.311 439.374 456.142ZM442.107 453.314C442.648 453.099 443.19 452.824 443.731 452.488C444.282 452.152 444.767 451.755 445.187 451.298H446.377V461H444.683V453.566C444.431 453.762 444.114 453.953 443.731 454.14C443.348 454.327 442.98 454.481 442.625 454.602L442.107 453.314Z" fill="#F4F4F4"/>
<path d="M490.8 456.142C490.8 456.674 490.865 457.159 490.996 457.598C491.127 458.027 491.313 458.396 491.556 458.704C491.808 459.003 492.111 459.236 492.466 459.404C492.821 459.572 493.222 459.656 493.67 459.656C494.109 459.656 494.505 459.572 494.86 459.404C495.215 459.236 495.513 459.003 495.756 458.704C496.008 458.396 496.199 458.027 496.33 457.598C496.461 457.159 496.526 456.674 496.526 456.142C496.526 455.61 496.461 455.129 496.33 454.7C496.199 454.261 496.008 453.893 495.756 453.594C495.513 453.286 495.215 453.048 494.86 452.88C494.505 452.712 494.109 452.628 493.67 452.628C493.222 452.628 492.821 452.712 492.466 452.88C492.111 453.048 491.808 453.286 491.556 453.594C491.313 453.902 491.127 454.271 490.996 454.7C490.865 455.129 490.8 455.61 490.8 456.142ZM498.374 456.142C498.374 456.842 498.285 457.472 498.108 458.032C497.931 458.592 497.683 459.082 497.366 459.502C497.049 459.913 496.675 460.249 496.246 460.51C495.826 460.771 495.364 460.958 494.86 461.07C494.888 461.266 494.986 461.434 495.154 461.574C495.322 461.714 495.532 461.831 495.784 461.924C496.045 462.017 496.339 462.092 496.666 462.148C497.002 462.213 497.352 462.26 497.716 462.288L497.324 463.618C496.12 463.525 495.163 463.291 494.454 462.918C493.745 462.554 493.292 461.971 493.096 461.168C492.517 461.112 491.976 460.963 491.472 460.72C490.977 460.477 490.543 460.146 490.17 459.726C489.797 459.306 489.503 458.797 489.288 458.2C489.073 457.603 488.966 456.917 488.966 456.142C488.966 455.311 489.092 454.583 489.344 453.958C489.596 453.323 489.937 452.791 490.366 452.362C490.805 451.933 491.309 451.611 491.878 451.396C492.447 451.181 493.049 451.074 493.684 451.074C494.319 451.074 494.921 451.181 495.49 451.396C496.059 451.611 496.554 451.933 496.974 452.362C497.403 452.791 497.744 453.323 497.996 453.958C498.248 454.583 498.374 455.311 498.374 456.142ZM506.581 453.818C506.581 454.154 506.511 454.485 506.371 454.812C506.231 455.129 506.049 455.442 505.825 455.75C505.61 456.049 505.363 456.343 505.083 456.632C504.803 456.912 504.523 457.187 504.243 457.458C504.094 457.598 503.926 457.766 503.739 457.962C503.552 458.158 503.375 458.354 503.207 458.55C503.039 458.746 502.894 458.937 502.773 459.124C502.652 459.301 502.586 459.451 502.577 459.572H506.889V461H500.715C500.706 460.925 500.701 460.837 500.701 460.734C500.701 460.622 500.701 460.538 500.701 460.482C500.701 460.034 500.771 459.623 500.911 459.25C501.06 458.867 501.252 458.513 501.485 458.186C501.718 457.859 501.98 457.551 502.269 457.262C502.558 456.973 502.848 456.688 503.137 456.408C503.361 456.193 503.576 455.983 503.781 455.778C503.986 455.573 504.164 455.372 504.313 455.176C504.472 454.971 504.598 454.765 504.691 454.56C504.784 454.345 504.831 454.126 504.831 453.902C504.831 453.417 504.691 453.071 504.411 452.866C504.131 452.661 503.79 452.558 503.389 452.558C503.128 452.558 502.885 452.595 502.661 452.67C502.437 452.745 502.236 452.833 502.059 452.936C501.891 453.039 501.742 453.146 501.611 453.258C501.48 453.361 501.382 453.445 501.317 453.51L500.477 452.32C500.869 451.947 501.326 451.648 501.849 451.424C502.381 451.191 502.95 451.074 503.557 451.074C504.593 451.074 505.354 451.321 505.839 451.816C506.334 452.301 506.581 452.969 506.581 453.818Z" fill="#F4F4F4"/>
<path d="M629.77 453.818C629.77 454.154 629.7 454.485 629.56 454.812C629.42 455.129 629.238 455.442 629.014 455.75C628.799 456.049 628.552 456.343 628.272 456.632C627.992 456.912 627.712 457.187 627.432 457.458C627.283 457.598 627.115 457.766 626.928 457.962C626.741 458.158 626.564 458.354 626.396 458.55C626.228 458.746 626.083 458.937 625.962 459.124C625.841 459.301 625.775 459.451 625.766 459.572H630.078V461H623.904C623.895 460.925 623.89 460.837 623.89 460.734C623.89 460.622 623.89 460.538 623.89 460.482C623.89 460.034 623.96 459.623 624.1 459.25C624.249 458.867 624.441 458.513 624.674 458.186C624.907 457.859 625.169 457.551 625.458 457.262C625.747 456.973 626.037 456.688 626.326 456.408C626.55 456.193 626.765 455.983 626.97 455.778C627.175 455.573 627.353 455.372 627.502 455.176C627.661 454.971 627.787 454.765 627.88 454.56C627.973 454.345 628.02 454.126 628.02 453.902C628.02 453.417 627.88 453.071 627.6 452.866C627.32 452.661 626.979 452.558 626.578 452.558C626.317 452.558 626.074 452.595 625.85 452.67C625.626 452.745 625.425 452.833 625.248 452.936C625.08 453.039 624.931 453.146 624.8 453.258C624.669 453.361 624.571 453.445 624.506 453.51L623.666 452.32C624.058 451.947 624.515 451.648 625.038 451.424C625.57 451.191 626.139 451.074 626.746 451.074C627.782 451.074 628.543 451.321 629.028 451.816C629.523 452.301 629.77 452.969 629.77 453.818ZM639.043 456.142C639.043 457.775 638.744 459.031 638.147 459.908C637.55 460.776 636.724 461.21 635.669 461.21C634.614 461.21 633.788 460.776 633.191 459.908C632.594 459.031 632.295 457.775 632.295 456.142C632.295 455.33 632.37 454.611 632.519 453.986C632.678 453.351 632.902 452.819 633.191 452.39C633.49 451.961 633.844 451.634 634.255 451.41C634.675 451.186 635.146 451.074 635.669 451.074C636.724 451.074 637.55 451.513 638.147 452.39C638.744 453.258 639.043 454.509 639.043 456.142ZM637.293 456.142C637.293 455.638 637.265 455.167 637.209 454.728C637.153 454.289 637.06 453.911 636.929 453.594C636.808 453.267 636.644 453.011 636.439 452.824C636.234 452.637 635.977 452.544 635.669 452.544C635.361 452.544 635.1 452.637 634.885 452.824C634.68 453.011 634.512 453.267 634.381 453.594C634.26 453.911 634.171 454.289 634.115 454.728C634.068 455.167 634.045 455.638 634.045 456.142C634.045 456.646 634.068 457.117 634.115 457.556C634.171 457.995 634.26 458.377 634.381 458.704C634.512 459.021 634.68 459.273 634.885 459.46C635.1 459.647 635.361 459.74 635.669 459.74C635.977 459.74 636.234 459.647 636.439 459.46C636.644 459.273 636.808 459.021 636.929 458.704C637.06 458.377 637.153 457.995 637.209 457.556C637.265 457.117 637.293 456.646 637.293 456.142ZM647.084 453.818C647.084 454.154 647.014 454.485 646.874 454.812C646.734 455.129 646.552 455.442 646.328 455.75C646.113 456.049 645.866 456.343 645.586 456.632C645.306 456.912 645.026 457.187 644.746 457.458C644.597 457.598 644.429 457.766 644.242 457.962C644.055 458.158 643.878 458.354 643.71 458.55C643.542 458.746 643.397 458.937 643.276 459.124C643.155 459.301 643.089 459.451 643.08 459.572H647.392V461H641.218C641.209 460.925 641.204 460.837 641.204 460.734C641.204 460.622 641.204 460.538 641.204 460.482C641.204 460.034 641.274 459.623 641.414 459.25C641.563 458.867 641.755 458.513 641.988 458.186C642.221 457.859 642.483 457.551 642.772 457.262C643.061 456.973 643.351 456.688 643.64 456.408C643.864 456.193 644.079 455.983 644.284 455.778C644.489 455.573 644.667 455.372 644.816 455.176C644.975 454.971 645.101 454.765 645.194 454.56C645.287 454.345 645.334 454.126 645.334 453.902C645.334 453.417 645.194 453.071 644.914 452.866C644.634 452.661 644.293 452.558 643.892 452.558C643.631 452.558 643.388 452.595 643.164 452.67C642.94 452.745 642.739 452.833 642.562 452.936C642.394 453.039 642.245 453.146 642.114 453.258C641.983 453.361 641.885 453.445 641.82 453.51L640.98 452.32C641.372 451.947 641.829 451.648 642.352 451.424C642.884 451.191 643.453 451.074 644.06 451.074C645.096 451.074 645.857 451.321 646.342 451.816C646.837 452.301 647.084 452.969 647.084 453.818ZM653.725 453.384C653.501 453.655 653.268 453.944 653.025 454.252C652.792 454.56 652.563 454.882 652.339 455.218C652.115 455.554 651.9 455.899 651.695 456.254C651.49 456.599 651.303 456.945 651.135 457.29H653.725V453.384ZM655.377 451.298V457.29H656.469V458.676H655.377V461H653.725V458.676H649.469V457.472C649.656 457.061 649.903 456.59 650.211 456.058C650.528 455.526 650.878 454.98 651.261 454.42C651.644 453.86 652.05 453.309 652.479 452.768C652.908 452.227 653.338 451.737 653.767 451.298H655.377Z" fill="#F4F4F4"/>
<path d="M175.162 44V34.298H181.392V35.796H176.926V38.19H180.902V39.66H176.926V42.502H181.728V44H175.162ZM190.71 44C190.58 43.6173 190.444 43.2393 190.304 42.866C190.164 42.4927 190.029 42.11 189.898 41.718H185.81C185.68 42.11 185.544 42.4973 185.404 42.88C185.274 43.2533 185.143 43.6267 185.012 44H183.178C183.542 42.964 183.888 42.0073 184.214 41.13C184.541 40.2527 184.858 39.422 185.166 38.638C185.484 37.854 185.796 37.1073 186.104 36.398C186.412 35.6887 186.73 34.9887 187.056 34.298H188.722C189.049 34.9887 189.366 35.6887 189.674 36.398C189.982 37.1073 190.29 37.854 190.598 38.638C190.916 39.422 191.238 40.2527 191.564 41.13C191.9 42.0073 192.25 42.964 192.614 44H190.71ZM187.854 36.174C187.64 36.6687 187.392 37.2707 187.112 37.98C186.842 38.6893 186.557 39.4593 186.258 40.29H189.45C189.152 39.4593 188.862 38.6847 188.582 37.966C188.302 37.2473 188.06 36.65 187.854 36.174ZM197.215 34.2C198.615 34.2 199.683 34.4567 200.421 34.97C201.167 35.4833 201.541 36.2673 201.541 37.322C201.541 38.638 200.892 39.5293 199.595 39.996C199.772 40.2107 199.973 40.472 200.197 40.78C200.421 41.088 200.649 41.424 200.883 41.788C201.116 42.1427 201.34 42.5113 201.555 42.894C201.769 43.2673 201.961 43.636 202.129 44H200.155C199.977 43.664 199.786 43.328 199.581 42.992C199.375 42.6467 199.165 42.3153 198.951 41.998C198.745 41.6713 198.54 41.368 198.335 41.088C198.129 40.7987 197.938 40.542 197.761 40.318C197.63 40.3273 197.518 40.332 197.425 40.332C197.331 40.332 197.243 40.332 197.159 40.332H196.305V44H194.541V34.438C194.97 34.3447 195.427 34.284 195.913 34.256C196.398 34.2187 196.832 34.2 197.215 34.2ZM197.341 35.726C196.967 35.726 196.622 35.74 196.305 35.768V38.904H197.075C197.504 38.904 197.882 38.8807 198.209 38.834C198.535 38.7873 198.806 38.7033 199.021 38.582C199.245 38.4607 199.413 38.2973 199.525 38.092C199.637 37.8867 199.693 37.6253 199.693 37.308C199.693 37.0093 199.637 36.7573 199.525 36.552C199.413 36.3467 199.249 36.1833 199.035 36.062C198.829 35.9407 198.582 35.8567 198.293 35.81C198.003 35.754 197.686 35.726 197.341 35.726ZM210.328 42.474V44H204.196V34.298H205.96V42.474H210.328ZM214.201 38.596C214.621 37.896 215.031 37.1867 215.433 36.468C215.834 35.7493 216.198 35.026 216.525 34.298H218.485C217.962 35.2873 217.416 36.272 216.847 37.252C216.287 38.2227 215.685 39.2027 215.041 40.192V44H213.277V40.22C212.633 39.2213 212.026 38.232 211.457 37.252C210.887 36.272 210.341 35.2873 209.819 34.298H211.891C212.217 35.026 212.577 35.7493 212.969 36.468C213.361 37.1867 213.771 37.896 214.201 38.596ZM226.708 42.684C227.343 42.684 227.805 42.5767 228.094 42.362C228.383 42.1473 228.528 41.844 228.528 41.452C228.528 41.2187 228.477 41.018 228.374 40.85C228.281 40.682 228.141 40.5327 227.954 40.402C227.777 40.262 227.557 40.136 227.296 40.024C227.035 39.9027 226.736 39.786 226.4 39.674C226.064 39.5527 225.737 39.422 225.42 39.282C225.112 39.1327 224.837 38.9507 224.594 38.736C224.361 38.5213 224.169 38.2647 224.02 37.966C223.88 37.6673 223.81 37.308 223.81 36.888C223.81 36.0107 224.113 35.3247 224.72 34.83C225.327 34.326 226.153 34.074 227.198 34.074C227.805 34.074 228.341 34.144 228.808 34.284C229.284 34.4147 229.657 34.5593 229.928 34.718L229.382 36.146C229.065 35.9687 228.715 35.8333 228.332 35.74C227.959 35.6467 227.571 35.6 227.17 35.6C226.694 35.6 226.321 35.698 226.05 35.894C225.789 36.09 225.658 36.3653 225.658 36.72C225.658 36.9347 225.7 37.1213 225.784 37.28C225.877 37.4293 226.003 37.5647 226.162 37.686C226.33 37.8073 226.521 37.9193 226.736 38.022C226.96 38.1247 227.203 38.2227 227.464 38.316C227.921 38.484 228.327 38.6567 228.682 38.834C229.046 39.002 229.349 39.2073 229.592 39.45C229.844 39.6833 230.035 39.9633 230.166 40.29C230.297 40.6073 230.362 40.9947 230.362 41.452C230.362 42.3293 230.049 43.0107 229.424 43.496C228.808 43.972 227.903 44.21 226.708 44.21C226.307 44.21 225.938 44.182 225.602 44.126C225.275 44.0793 224.981 44.0187 224.72 43.944C224.468 43.8693 224.249 43.7947 224.062 43.72C223.875 43.636 223.726 43.5613 223.614 43.496L224.132 42.054C224.384 42.194 224.725 42.334 225.154 42.474C225.583 42.614 226.101 42.684 226.708 42.684ZM239.379 34.298V35.824H236.397V44H234.619V35.824H231.637V34.298H239.379ZM247.071 44C246.94 43.6173 246.805 43.2393 246.665 42.866C246.525 42.4927 246.39 42.11 246.259 41.718H242.171C242.04 42.11 241.905 42.4973 241.765 42.88C241.634 43.2533 241.504 43.6267 241.373 44H239.539C239.903 42.964 240.248 42.0073 240.575 41.13C240.902 40.2527 241.219 39.422 241.527 38.638C241.844 37.854 242.157 37.1073 242.465 36.398C242.773 35.6887 243.09 34.9887 243.417 34.298H245.083C245.41 34.9887 245.727 35.6887 246.035 36.398C246.343 37.1073 246.651 37.854 246.959 38.638C247.276 39.422 247.598 40.2527 247.925 41.13C248.261 42.0073 248.611 42.964 248.975 44H247.071ZM244.215 36.174C244 36.6687 243.753 37.2707 243.473 37.98C243.202 38.6893 242.918 39.4593 242.619 40.29H245.811C245.512 39.4593 245.223 38.6847 244.943 37.966C244.663 37.2473 244.42 36.65 244.215 36.174ZM255.205 35.628C254.206 35.628 253.441 35.9407 252.909 36.566C252.386 37.182 252.125 38.0407 252.125 39.142C252.125 39.6647 252.186 40.1453 252.307 40.584C252.438 41.0133 252.624 41.382 252.867 41.69C253.119 41.998 253.427 42.2407 253.791 42.418C254.164 42.586 254.598 42.67 255.093 42.67C255.401 42.67 255.667 42.6607 255.891 42.642C256.115 42.614 256.292 42.5813 256.423 42.544V39.058H258.187V43.72C257.944 43.8133 257.534 43.916 256.955 44.028C256.376 44.14 255.709 44.196 254.953 44.196C254.253 44.196 253.614 44.084 253.035 43.86C252.456 43.636 251.962 43.3093 251.551 42.88C251.15 42.4507 250.837 41.9233 250.613 41.298C250.389 40.6727 250.277 39.954 250.277 39.142C250.277 38.33 250.398 37.6113 250.641 36.986C250.893 36.3607 251.234 35.8333 251.663 35.404C252.092 34.9653 252.596 34.634 253.175 34.41C253.754 34.186 254.37 34.074 255.023 34.074C255.471 34.074 255.868 34.1067 256.213 34.172C256.568 34.228 256.871 34.2933 257.123 34.368C257.375 34.4427 257.58 34.522 257.739 34.606C257.907 34.69 258.024 34.7507 258.089 34.788L257.557 36.23C257.277 36.062 256.927 35.922 256.507 35.81C256.096 35.6887 255.662 35.628 255.205 35.628ZM260.926 44V34.298H267.156V35.796H262.69V38.19H266.666V39.66H262.69V42.502H267.492V44H260.926Z" fill="#F4F4F4"/>
<path d="M478.698 35.628C477.699 35.628 476.934 35.9407 476.402 36.566C475.879 37.182 475.618 38.0407 475.618 39.142C475.618 39.6647 475.679 40.1453 475.8 40.584C475.931 41.0133 476.117 41.382 476.36 41.69C476.612 41.998 476.92 42.2407 477.284 42.418C477.657 42.586 478.091 42.67 478.586 42.67C478.894 42.67 479.16 42.6607 479.384 42.642C479.608 42.614 479.785 42.5813 479.916 42.544V39.058H481.68V43.72C481.437 43.8133 481.027 43.916 480.448 44.028C479.869 44.14 479.202 44.196 478.446 44.196C477.746 44.196 477.107 44.084 476.528 43.86C475.949 43.636 475.455 43.3093 475.044 42.88C474.643 42.4507 474.33 41.9233 474.106 41.298C473.882 40.6727 473.77 39.954 473.77 39.142C473.77 38.33 473.891 37.6113 474.134 36.986C474.386 36.3607 474.727 35.8333 475.156 35.404C475.585 34.9653 476.089 34.634 476.668 34.41C477.247 34.186 477.863 34.074 478.516 34.074C478.964 34.074 479.361 34.1067 479.706 34.172C480.061 34.228 480.364 34.2933 480.616 34.368C480.868 34.4427 481.073 34.522 481.232 34.606C481.4 34.69 481.517 34.7507 481.582 34.788L481.05 36.23C480.77 36.062 480.42 35.922 480 35.81C479.589 35.6887 479.155 35.628 478.698 35.628ZM487.093 34.2C488.493 34.2 489.561 34.4567 490.299 34.97C491.045 35.4833 491.419 36.2673 491.419 37.322C491.419 38.638 490.77 39.5293 489.473 39.996C489.65 40.2107 489.851 40.472 490.075 40.78C490.299 41.088 490.527 41.424 490.761 41.788C490.994 42.1427 491.218 42.5113 491.433 42.894C491.647 43.2673 491.839 43.636 492.007 44H490.033C489.855 43.664 489.664 43.328 489.459 42.992C489.253 42.6467 489.043 42.3153 488.829 41.998C488.623 41.6713 488.418 41.368 488.213 41.088C488.007 40.7987 487.816 40.542 487.639 40.318C487.508 40.3273 487.396 40.332 487.303 40.332C487.209 40.332 487.121 40.332 487.037 40.332H486.183V44H484.419V34.438C484.848 34.3447 485.305 34.284 485.791 34.256C486.276 34.2187 486.71 34.2 487.093 34.2ZM487.219 35.726C486.845 35.726 486.5 35.74 486.183 35.768V38.904H486.953C487.382 38.904 487.76 38.8807 488.087 38.834C488.413 38.7873 488.684 38.7033 488.899 38.582C489.123 38.4607 489.291 38.2973 489.403 38.092C489.515 37.8867 489.571 37.6253 489.571 37.308C489.571 37.0093 489.515 36.7573 489.403 36.552C489.291 36.3467 489.127 36.1833 488.913 36.062C488.707 35.9407 488.46 35.8567 488.171 35.81C487.881 35.754 487.564 35.726 487.219 35.726ZM495.393 39.142C495.393 39.674 495.458 40.1593 495.589 40.598C495.719 41.0273 495.906 41.396 496.149 41.704C496.401 42.0027 496.704 42.236 497.059 42.404C497.413 42.572 497.815 42.656 498.263 42.656C498.701 42.656 499.098 42.572 499.453 42.404C499.807 42.236 500.106 42.0027 500.349 41.704C500.601 41.396 500.792 41.0273 500.923 40.598C501.053 40.1593 501.119 39.674 501.119 39.142C501.119 38.61 501.053 38.1293 500.923 37.7C500.792 37.2613 500.601 36.8927 500.349 36.594C500.106 36.286 499.807 36.048 499.453 35.88C499.098 35.712 498.701 35.628 498.263 35.628C497.815 35.628 497.413 35.712 497.059 35.88C496.704 36.048 496.401 36.286 496.149 36.594C495.906 36.902 495.719 37.2707 495.589 37.7C495.458 38.1293 495.393 38.61 495.393 39.142ZM502.967 39.142C502.967 39.9727 502.841 40.7053 502.589 41.34C502.346 41.9747 502.01 42.5067 501.581 42.936C501.161 43.356 500.666 43.6733 500.097 43.888C499.527 44.1027 498.921 44.21 498.277 44.21C497.633 44.21 497.021 44.1027 496.443 43.888C495.873 43.6733 495.374 43.356 494.945 42.936C494.525 42.5067 494.189 41.9747 493.937 41.34C493.685 40.7053 493.559 39.9727 493.559 39.142C493.559 38.3113 493.685 37.5833 493.937 36.958C494.189 36.3233 494.529 35.7913 494.959 35.362C495.397 34.9327 495.901 34.6107 496.471 34.396C497.04 34.1813 497.642 34.074 498.277 34.074C498.911 34.074 499.513 34.1813 500.083 34.396C500.652 34.6107 501.147 34.9327 501.567 35.362C501.996 35.7913 502.337 36.3233 502.589 36.958C502.841 37.5833 502.967 38.3113 502.967 39.142ZM511.626 35.39C511.776 35.894 511.934 36.4213 512.102 36.972C512.27 37.5133 512.443 38.0593 512.62 38.61C512.807 39.1513 512.989 39.688 513.166 40.22C513.353 40.7427 513.53 41.2373 513.698 41.704C513.838 41.2 513.974 40.654 514.104 40.066C514.235 39.4687 514.366 38.8527 514.496 38.218C514.627 37.574 514.753 36.9207 514.874 36.258C515.005 35.5953 515.126 34.942 515.238 34.298H517.058C516.732 36.0527 516.368 37.742 515.966 39.366C515.565 40.9807 515.117 42.5253 514.622 44H512.942C512.214 42.1147 511.51 40.0567 510.828 37.826C510.483 38.9553 510.133 40.0287 509.778 41.046C509.424 42.0633 509.069 43.048 508.714 44H507.034C506.53 42.5253 506.078 40.9807 505.676 39.366C505.284 37.742 504.925 36.0527 504.598 34.298H506.488C506.6 34.9327 506.717 35.5813 506.838 36.244C506.969 36.9067 507.1 37.56 507.23 38.204C507.37 38.8387 507.51 39.4547 507.65 40.052C507.79 40.6493 507.93 41.2 508.07 41.704C508.248 41.228 508.425 40.7287 508.602 40.206C508.789 39.674 508.971 39.1373 509.148 38.596C509.326 38.0453 509.494 37.4993 509.652 36.958C509.82 36.4167 509.974 35.894 510.114 35.39H511.626ZM526.244 34.298V35.824H523.262V44H521.484V35.824H518.502V34.298H526.244ZM534.267 34.298H536.031V44H534.267V39.702H530.053V44H528.289V34.298H530.053V38.176H534.267V34.298ZM545.371 42.684C546.006 42.684 546.468 42.5767 546.757 42.362C547.046 42.1473 547.191 41.844 547.191 41.452C547.191 41.2187 547.14 41.018 547.037 40.85C546.944 40.682 546.804 40.5327 546.617 40.402C546.44 40.262 546.22 40.136 545.959 40.024C545.698 39.9027 545.399 39.786 545.063 39.674C544.727 39.5527 544.4 39.422 544.083 39.282C543.775 39.1327 543.5 38.9507 543.257 38.736C543.024 38.5213 542.832 38.2647 542.683 37.966C542.543 37.6673 542.473 37.308 542.473 36.888C542.473 36.0107 542.776 35.3247 543.383 34.83C543.99 34.326 544.816 34.074 545.861 34.074C546.468 34.074 547.004 34.144 547.471 34.284C547.947 34.4147 548.32 34.5593 548.591 34.718L548.045 36.146C547.728 35.9687 547.378 35.8333 546.995 35.74C546.622 35.6467 546.234 35.6 545.833 35.6C545.357 35.6 544.984 35.698 544.713 35.894C544.452 36.09 544.321 36.3653 544.321 36.72C544.321 36.9347 544.363 37.1213 544.447 37.28C544.54 37.4293 544.666 37.5647 544.825 37.686C544.993 37.8073 545.184 37.9193 545.399 38.022C545.623 38.1247 545.866 38.2227 546.127 38.316C546.584 38.484 546.99 38.6567 547.345 38.834C547.709 39.002 548.012 39.2073 548.255 39.45C548.507 39.6833 548.698 39.9633 548.829 40.29C548.96 40.6073 549.025 40.9947 549.025 41.452C549.025 42.3293 548.712 43.0107 548.087 43.496C547.471 43.972 546.566 44.21 545.371 44.21C544.97 44.21 544.601 44.182 544.265 44.126C543.938 44.0793 543.644 44.0187 543.383 43.944C543.131 43.8693 542.912 43.7947 542.725 43.72C542.538 43.636 542.389 43.5613 542.277 43.496L542.795 42.054C543.047 42.194 543.388 42.334 543.817 42.474C544.246 42.614 544.764 42.684 545.371 42.684ZM558.042 34.298V35.824H555.06V44H553.282V35.824H550.3V34.298H558.042ZM565.734 44C565.603 43.6173 565.468 43.2393 565.328 42.866C565.188 42.4927 565.053 42.11 564.922 41.718H560.834C560.703 42.11 560.568 42.4973 560.428 42.88C560.297 43.2533 560.167 43.6267 560.036 44H558.202C558.566 42.964 558.911 42.0073 559.238 41.13C559.565 40.2527 559.882 39.422 560.19 38.638C560.507 37.854 560.82 37.1073 561.128 36.398C561.436 35.6887 561.753 34.9887 562.08 34.298H563.746C564.073 34.9887 564.39 35.6887 564.698 36.398C565.006 37.1073 565.314 37.854 565.622 38.638C565.939 39.422 566.261 40.2527 566.588 41.13C566.924 42.0073 567.274 42.964 567.638 44H565.734ZM562.878 36.174C562.663 36.6687 562.416 37.2707 562.136 37.98C561.865 38.6893 561.581 39.4593 561.282 40.29H564.474C564.175 39.4593 563.886 38.6847 563.606 37.966C563.326 37.2473 563.083 36.65 562.878 36.174ZM573.868 35.628C572.869 35.628 572.104 35.9407 571.572 36.566C571.049 37.182 570.788 38.0407 570.788 39.142C570.788 39.6647 570.849 40.1453 570.97 40.584C571.101 41.0133 571.287 41.382 571.53 41.69C571.782 41.998 572.09 42.2407 572.454 42.418C572.827 42.586 573.261 42.67 573.756 42.67C574.064 42.67 574.33 42.6607 574.554 42.642C574.778 42.614 574.955 42.5813 575.086 42.544V39.058H576.85V43.72C576.607 43.8133 576.197 43.916 575.618 44.028C575.039 44.14 574.372 44.196 573.616 44.196C572.916 44.196 572.277 44.084 571.698 43.86C571.119 43.636 570.625 43.3093 570.214 42.88C569.813 42.4507 569.5 41.9233 569.276 41.298C569.052 40.6727 568.94 39.954 568.94 39.142C568.94 38.33 569.061 37.6113 569.304 36.986C569.556 36.3607 569.897 35.8333 570.326 35.404C570.755 34.9653 571.259 34.634 571.838 34.41C572.417 34.186 573.033 34.074 573.686 34.074C574.134 34.074 574.531 34.1067 574.876 34.172C575.231 34.228 575.534 34.2933 575.786 34.368C576.038 34.4427 576.243 34.522 576.402 34.606C576.57 34.69 576.687 34.7507 576.752 34.788L576.22 36.23C575.94 36.062 575.59 35.922 575.17 35.81C574.759 35.6887 574.325 35.628 573.868 35.628ZM579.589 44V34.298H585.819V35.796H581.353V38.19H585.329V39.66H581.353V42.502H586.155V44H579.589Z" fill="#F4F4F4"/>
<path d="M0.297999 267.076L1.824 267.076L1.824 270.058L10 270.058L10 271.836L1.824 271.836L1.824 274.818L0.298 274.818L0.297999 267.076ZM0.199999 262.357C0.199999 260.957 0.456665 259.888 0.969999 259.151C1.48333 258.404 2.26733 258.031 3.322 258.031C4.638 258.031 5.52933 258.679 5.996 259.977C6.21067 259.799 6.472 259.599 6.78 259.375C7.088 259.151 7.424 258.922 7.788 258.689C8.14267 258.455 8.51133 258.231 8.894 258.017C9.26733 257.802 9.636 257.611 10 257.443L10 259.417C9.664 259.594 9.328 259.785 8.992 259.991C8.64667 260.196 8.31533 260.406 7.998 260.621C7.67133 260.826 7.368 261.031 7.088 261.237C6.79867 261.442 6.542 261.633 6.318 261.811C6.32733 261.941 6.332 262.053 6.332 262.147C6.332 262.24 6.332 262.329 6.332 262.413L6.332 263.267L10 263.267L10 265.031L0.437999 265.031C0.344666 264.601 0.283999 264.144 0.255999 263.659C0.218666 263.173 0.199999 262.739 0.199999 262.357ZM1.726 262.231C1.726 262.604 1.74 262.949 1.768 263.267L4.904 263.267L4.904 262.497C4.904 262.067 4.88067 261.689 4.834 261.363C4.78733 261.036 4.70333 260.765 4.582 260.551C4.46067 260.327 4.29733 260.159 4.092 260.047C3.88667 259.935 3.62533 259.879 3.308 259.879C3.00933 259.879 2.75733 259.935 2.552 260.047C2.34667 260.159 2.18333 260.322 2.062 260.537C1.94067 260.742 1.85667 260.989 1.81 261.279C1.754 261.568 1.726 261.885 1.726 262.231ZM10 248.58C9.61733 248.711 9.23933 248.846 8.866 248.986C8.49267 249.126 8.11 249.261 7.718 249.392L7.718 253.48C8.11 253.611 8.49733 253.746 8.88 253.886C9.25333 254.017 9.62667 254.147 10 254.278L10 256.112C8.964 255.748 8.00733 255.403 7.13 255.076C6.25267 254.749 5.422 254.432 4.638 254.124C3.854 253.807 3.10733 253.494 2.398 253.186C1.68867 252.878 0.988665 252.561 0.297999 252.234L0.297999 250.568C0.988665 250.241 1.68867 249.924 2.398 249.616C3.10733 249.308 3.854 249 4.638 248.692C5.422 248.375 6.25267 248.053 7.13 247.726C8.00733 247.39 8.964 247.04 10 246.676L10 248.58ZM2.174 251.436C2.66867 251.651 3.27067 251.898 3.98 252.178C4.68933 252.449 5.45933 252.733 6.29 253.032L6.29 249.84C5.45933 250.139 4.68467 250.428 3.966 250.708C3.24733 250.988 2.65 251.231 2.174 251.436ZM8.544 242.986C8.55333 242.883 8.56267 242.748 8.572 242.58C8.572 242.412 8.572 242.183 8.572 241.894C8.572 240.708 8.27333 239.826 7.676 239.248C7.06933 238.66 6.22466 238.366 5.142 238.366C4.04066 238.366 3.196 238.65 2.608 239.22C2.02 239.789 1.726 240.671 1.726 241.866C1.726 242.388 1.74 242.762 1.768 242.986L8.544 242.986ZM5.142 236.518C5.982 236.518 6.71466 236.648 7.34 236.91C7.956 237.171 8.474 237.544 8.894 238.03C9.30467 238.506 9.61267 239.084 9.818 239.766C10.014 240.438 10.112 241.184 10.112 242.006C10.112 242.398 10.0933 242.841 10.056 243.336C10.028 243.83 9.96267 244.302 9.86 244.75L0.437998 244.75C0.335332 244.302 0.269998 243.826 0.241998 243.322C0.213998 242.818 0.199998 242.37 0.199998 241.978C0.199998 241.166 0.297998 240.424 0.493998 239.752C0.680665 239.08 0.979331 238.506 1.39 238.03C1.79133 237.544 2.30466 237.171 2.93 236.91C3.546 236.648 4.28333 236.518 5.142 236.518ZM0.297998 233.892L0.297998 232.128L10 232.128L10 233.892L0.297998 233.892ZM10 222.566C9.468 222.883 8.89866 223.238 8.292 223.63C7.676 224.022 7.06 224.428 6.444 224.848C5.81866 225.268 5.21666 225.697 4.638 226.136C4.05 226.565 3.52266 226.976 3.056 227.368L10 227.368L10 229.104L0.297998 229.104L0.297998 227.662C0.689998 227.288 1.15666 226.887 1.698 226.458C2.23 226.028 2.78533 225.599 3.364 225.17C3.94266 224.731 4.526 224.311 5.114 223.91C5.69266 223.499 6.234 223.135 6.738 222.818L0.297997 222.818L0.297997 221.068L10 221.068L10 222.566ZM1.628 213.504C1.628 214.503 1.94066 215.268 2.566 215.8C3.182 216.323 4.04066 216.584 5.142 216.584C5.66466 216.584 6.14533 216.524 6.584 216.402C7.01333 216.272 7.382 216.085 7.69 215.842C7.998 215.59 8.24066 215.282 8.418 214.918C8.586 214.545 8.67 214.111 8.67 213.616C8.67 213.308 8.66066 213.042 8.642 212.818C8.614 212.594 8.58133 212.417 8.544 212.286L5.058 212.286L5.058 210.522L9.72 210.522C9.81333 210.765 9.916 211.176 10.028 211.754C10.14 212.333 10.196 213 10.196 213.756C10.196 214.456 10.084 215.096 9.86 215.674C9.636 216.253 9.30933 216.748 8.88 217.158C8.45066 217.56 7.92333 217.872 7.298 218.096C6.67266 218.32 5.954 218.432 5.142 218.432C4.33 218.432 3.61133 218.311 2.986 218.068C2.36066 217.816 1.83333 217.476 1.404 217.046C0.965331 216.617 0.633997 216.113 0.409997 215.534C0.185997 214.956 0.0739966 214.34 0.0739966 213.686C0.0739966 213.238 0.106663 212.842 0.171997 212.496C0.227997 212.142 0.29333 211.838 0.367997 211.586C0.442664 211.334 0.521997 211.129 0.605997 210.97C0.689997 210.802 0.750663 210.686 0.787996 210.62L2.23 211.152C2.062 211.432 1.922 211.782 1.81 212.202C1.68866 212.613 1.628 213.047 1.628 213.504ZM10 201.044C8.488 201.744 6.906 202.421 5.254 203.074C3.602 203.718 1.95 204.32 0.297997 204.88L0.297997 202.934C0.95133 202.71 1.61866 202.481 2.3 202.248C2.98133 202.015 3.65333 201.781 4.316 201.548C4.96933 201.315 5.604 201.081 6.22 200.848C6.836 200.615 7.40066 200.386 7.914 200.162C7.40066 199.947 6.84066 199.723 6.234 199.49C5.618 199.257 4.97866 199.023 4.316 198.79C3.65333 198.547 2.98133 198.309 2.3 198.076C1.61866 197.843 0.95133 197.619 0.297996 197.404L0.297996 195.514C1.95 196.083 3.602 196.69 5.254 197.334C6.906 197.978 8.488 198.65 10 199.35L10 201.044ZM5.142 192.391C5.674 192.391 6.15933 192.326 6.598 192.195C7.02733 192.064 7.396 191.878 7.704 191.635C8.00266 191.383 8.236 191.08 8.404 190.725C8.572 190.37 8.656 189.969 8.656 189.521C8.656 189.082 8.572 188.686 8.404 188.331C8.236 187.976 8.00266 187.678 7.704 187.435C7.396 187.183 7.02733 186.992 6.598 186.861C6.15933 186.73 5.674 186.665 5.142 186.665C4.61 186.665 4.12933 186.73 3.7 186.861C3.26133 186.992 2.89266 187.183 2.594 187.435C2.286 187.678 2.048 187.976 1.88 188.331C1.712 188.686 1.628 189.082 1.628 189.521C1.628 189.969 1.712 190.37 1.88 190.725C2.048 191.08 2.286 191.383 2.594 191.635C2.902 191.878 3.27066 192.064 3.7 192.195C4.12933 192.326 4.61 192.391 5.142 192.391ZM5.142 184.817C5.97266 184.817 6.70533 184.943 7.34 185.195C7.97466 185.438 8.50666 185.774 8.936 186.203C9.356 186.623 9.67333 187.118 9.888 187.687C10.1027 188.256 10.21 188.863 10.21 189.507C10.21 190.151 10.1027 190.762 9.888 191.341C9.67333 191.91 9.356 192.41 8.936 192.839C8.50666 193.259 7.97466 193.595 7.34 193.847C6.70533 194.099 5.97266 194.225 5.142 194.225C4.31133 194.225 3.58333 194.099 2.958 193.847C2.32333 193.595 1.79133 193.254 1.362 192.825C0.932662 192.386 0.610662 191.882 0.395996 191.313C0.181329 190.744 0.0739956 190.142 0.0739955 189.507C0.0739955 188.872 0.181329 188.27 0.395995 187.701C0.610662 187.132 0.932662 186.637 1.362 186.217C1.79133 185.788 2.32333 185.447 2.958 185.195C3.58333 184.943 4.31133 184.817 5.142 184.817ZM8.474 176.05L10 176.05L10 182.182L0.297996 182.182L0.297996 180.418L8.474 180.418L8.474 176.05ZM10.21 170.484C10.21 171.147 10.1167 171.716 9.93 172.192C9.734 172.668 9.46333 173.065 9.118 173.382C8.77266 173.69 8.36666 173.919 7.9 174.068C7.43333 174.217 6.92 174.292 6.36 174.292L0.297995 174.292L0.297995 172.514L6.192 172.514C6.63066 172.514 7.00866 172.467 7.326 172.374C7.634 172.271 7.886 172.131 8.082 171.954C8.278 171.767 8.42266 171.553 8.516 171.31C8.60933 171.058 8.656 170.778 8.656 170.47C8.656 170.162 8.60933 169.882 8.516 169.63C8.42266 169.378 8.278 169.163 8.082 168.986C7.886 168.799 7.634 168.659 7.326 168.566C7.00866 168.463 6.63066 168.412 6.192 168.412L0.297995 168.412L0.297995 166.634L6.35999 166.634C6.92 166.634 7.43333 166.713 7.9 166.872C8.36666 167.021 8.77266 167.255 9.118 167.572C9.46333 167.88 9.734 168.277 9.93 168.762C10.1167 169.247 10.21 169.821 10.21 170.484ZM0.297995 161.564C0.652661 161.359 1.08666 161.13 1.59999 160.878C2.11333 160.626 2.65466 160.37 3.22399 160.108C3.78399 159.847 4.35799 159.59 4.94599 159.338C5.52466 159.077 6.06133 158.839 6.55599 158.624C6.06133 158.41 5.52466 158.176 4.94599 157.924C4.35799 157.672 3.78399 157.416 3.22399 157.154C2.65466 156.893 2.11333 156.636 1.59999 156.384C1.08666 156.132 0.652661 155.904 0.297995 155.698L0.297994 154.102C1.00733 154.018 1.76333 153.939 2.56599 153.864C3.35933 153.79 4.17599 153.724 5.01599 153.668C5.84666 153.603 6.68666 153.547 7.53599 153.5C8.37599 153.444 9.19733 153.398 9.99999 153.36L9.99999 155.096C8.87066 155.134 7.70866 155.18 6.51399 155.236C5.31933 155.283 4.16199 155.358 3.04199 155.46C3.25666 155.563 3.51333 155.684 3.81199 155.824C4.11066 155.964 4.43733 156.114 4.79199 156.272C5.13733 156.431 5.49666 156.594 5.86999 156.762C6.24333 156.921 6.60733 157.08 6.96199 157.238C7.30733 157.388 7.63399 157.528 7.94199 157.658C8.24066 157.789 8.49733 157.901 8.71199 157.994L8.71199 159.31C8.49733 159.404 8.23599 159.516 7.92799 159.646C7.61999 159.777 7.29333 159.922 6.94799 160.08C6.59333 160.23 6.22933 160.388 5.85599 160.556C5.48266 160.715 5.12333 160.874 4.77799 161.032C4.43266 161.191 4.11066 161.34 3.81199 161.48C3.50399 161.62 3.24733 161.742 3.04199 161.844C4.16199 161.947 5.31933 162.026 6.51399 162.082C7.70866 162.129 8.87066 162.171 10 162.208L10 163.944C9.19733 163.907 8.36666 163.865 7.508 163.818C6.64933 163.762 5.79999 163.706 4.95999 163.65C4.11066 163.585 3.28933 163.515 2.49599 163.44C1.70266 163.366 0.969995 163.286 0.297995 163.202L0.297995 161.564ZM9.99999 150.605L0.297994 150.605L0.297994 144.375L1.79599 144.375L1.79599 148.841L4.18999 148.841L4.18999 144.865L5.65999 144.865L5.65999 148.841L8.50199 148.841L8.50199 144.039L9.99999 144.039L9.99999 150.605Z" fill="#F4F4F4"/>
<defs>
<filter id="filter0_bd_394_393" x="27" y="28" width="425" height="448" filterUnits="userSpaceOnUse" color-interpolation-filters="sRGB">
<feFlood flood-opacity="0" result="BackgroundImageFix"/>
<feGaussianBlur in="BackgroundImageFix" stdDeviation="25"/>
<feComposite in2="SourceAlpha" operator="in" result="effect1_backgroundBlur_394_393"/>
<feColorMatrix in="SourceAlpha" type="matrix" values="0 0 0 0 0 0 0 0 0 0 0 0 0 0 0 0 0 0 127 0" result="hardAlpha"/>
<feOffset dx="46" dy="46"/>
<feGaussianBlur stdDeviation="20"/>
<feComposite in2="hardAlpha" operator="out"/>
<feColorMatrix type="matrix" values="0 0 0 0 0.0173077 0 0 0 0 0.0865384 0 0 0 0 0.09 0 0 0 0.2 0"/>
<feBlend mode="normal" in2="effect1_backgroundBlur_394_393" result="effect2_dropShadow_394_393"/>
<feBlend mode="normal" in="SourceGraphic" in2="effect2_dropShadow_394_393" result="shape"/>
</filter>
<filter id="filter1_bd_394_393" x="336" y="28" width="425" height="448" filterUnits="userSpaceOnUse" color-interpolation-filters="sRGB">
<feFlood flood-opacity="0" result="BackgroundImageFix"/>
<feGaussianBlur in="BackgroundImageFix" stdDeviation="25"/>
<feComposite in2="SourceAlpha" operator="in" result="effect1_backgroundBlur_394_393"/>
<feColorMatrix in="SourceAlpha" type="matrix" values="0 0 0 0 0 0 0 0 0 0 0 0 0 0 0 0 0 0 127 0" result="hardAlpha"/>
<feOffset dx="46" dy="46"/>
<feGaussianBlur stdDeviation="20"/>
<feComposite in2="hardAlpha" operator="out"/>
<feColorMatrix type="matrix" values="0 0 0 0 0.0173077 0 0 0 0 0.0865384 0 0 0 0 0.09 0 0 0 0.2 0"/>
<feBlend mode="normal" in2="effect1_backgroundBlur_394_393" result="effect2_dropShadow_394_393"/>
<feBlend mode="normal" in="SourceGraphic" in2="effect2_dropShadow_394_393" result="shape"/>
</filter>
<linearGradient id="paint0_linear_394_393" x1="157.773" y1="-152.582" x2="440.553" y2="279.274" gradientUnits="userSpaceOnUse">
<stop stop-color="white"/>
<stop offset="0.237864" stop-opacity="0"/>
<stop offset="0.472362" stop-color="#01F299"/>
<stop offset="0.812781" stop-color="#048C64"/>
<stop offset="1" stop-color="#000749" stop-opacity="0"/>
</linearGradient>
<linearGradient id="paint1_linear_394_393" x1="755.773" y1="159.418" x2="1038.55" y2="591.274" gradientUnits="userSpaceOnUse">
<stop stop-color="white"/>
<stop offset="0.237864" stop-opacity="0"/>
<stop offset="0.472362" stop-color="#01F299"/>
<stop offset="0.812781" stop-color="#048C64"/>
<stop offset="1" stop-color="#000749" stop-opacity="0"/>
</linearGradient>
<linearGradient id="paint2_linear_394_393" x1="50" y1="634.078" x2="736" y2="634.078" gradientUnits="userSpaceOnUse">
<stop stop-color="#141619"/>
<stop offset="1" stop-color="#01F299"/>
</linearGradient>
<linearGradient id="paint3_linear_394_393" x1="50" y1="414" x2="50" y2="0" gradientUnits="userSpaceOnUse">
<stop stop-color="#141619"/>
<stop offset="1" stop-color="#01F299"/>
</linearGradient>
</defs>
</svg>
